<?xml version="1.0" standalone="no"?>
<!DOCTYPE svg PUBLIC "-//W3C//DTD SVG 20010904//EN"
 "http://www.w3.org/TR/2001/REC-SVG-20010904/DTD/svg10.dtd">
<svg version="1.0" xmlns="http://www.w3.org/2000/svg"
 width="600.000000pt" height="400.000000pt" viewBox="0 0 600.000000 400.000000"
 preserveAspectRatio="xMidYMid meet">
<g transform="translate(0.000000,400.000000) scale(0.100000,-0.100000)"
fill="#000000" stroke="none">
<path d="M2713 3838 l-123 -81 0 -125 c0 -124 0 -125 -20 -107 -11 10 -20 15
-20 10 0 -4 -8 1 -17 12 -10 10 -13 12 -8 4 9 -12 7 -12 -13 -2 -12 7 -20 16
-17 21 3 6 -5 15 -20 22 -21 10 -30 8 -53 -9 -15 -11 -65 -46 -112 -78 -47
-32 -93 -65 -102 -73 -17 -14 -18 -47 -18 -419 0 -267 -3 -402 -10 -398 -6 4
-10 121 -10 318 l0 312 -27 16 c-26 16 -28 15 -174 -80 l-149 -96 0 -402 c0
-222 -3 -403 -8 -403 -4 0 -30 19 -57 43 -28 24 -94 78 -148 120 l-99 77 -74
0 c-71 0 -75 -1 -84 -26 -14 -36 -13 -1019 0 -1045 10 -18 6 -19 -122 -21 -73
-1 -189 0 -258 1 -179 4 -189 0 -278 -112 -40 -51 -77 -99 -82 -107 -9 -13
-13 -12 -28 7 -114 147 -159 193 -197 204 -54 15 -247 8 -269 -10 -14 -12 -16
-50 -16 -342 0 -284 2 -330 16 -343 12 -13 40 -16 143 -16 159 0 159 0 163
124 l3 89 60 -71 c71 -83 105 -103 143 -81 14 8 48 42 76 76 28 34 54 62 59
62 4 1 7 -35 7 -78 0 -62 4 -84 18 -101 l19 -23 614 -1 c338 0 632 0 654 1 22
1 667 0 1434 0 l1394 -2 14 22 14 21 37 -21 c36 -21 46 -22 292 -20 143 1 276
7 302 14 66 15 122 67 143 130 22 66 17 194 -9 234 -15 22 -16 32 -7 52 28 61
5 162 -49 218 l-29 30 144 -3 c132 -4 145 -3 145 13 0 11 -5 15 -15 12 -8 -4
-17 -3 -19 2 -3 4 -20 6 -38 4 -25 -3 -30 -2 -18 6 12 8 8 10 -15 5 -16 -3
-187 17 -380 45 -303 43 -761 102 -990 127 -38 5 -72 8 -75 9 -3 1 -59 7 -125
14 l-120 13 -1 64 c0 35 2 64 5 64 3 -1 35 -7 71 -15 36 -8 71 -14 78 -15 9 0
12 32 12 130 0 84 4 130 11 130 7 0 9 -45 7 -133 l-3 -133 115 -18 c288 -45
708 -117 735 -125 22 -7 25 -10 10 -11 l-20 -1 20 -9 c11 -5 31 -8 45 -8 l25
0 -25 8 c-14 4 -18 9 -10 9 8 1 1 8 -15 15 -17 7 -35 19 -42 27 -11 14 -16
163 -14 460 l1 97 40 16 c22 9 44 16 48 16 4 0 6 -142 4 -315 l-3 -314 23 -6
c13 -3 46 -10 73 -15 28 -6 57 -13 65 -15 13 -4 15 26 19 223 3 208 -6 425
-16 394 -3 -6 -10 -9 -16 -5 -7 3 -9 3 -5 -2 4 -4 3 -16 -2 -26 -6 -11 -6 -20
-1 -24 5 -3 12 3 14 12 3 10 5 -94 6 -230 1 -187 -2 -246 -11 -241 -7 5 -9 2
-5 -9 4 -11 2 -14 -9 -10 -7 3 -14 0 -14 -6 0 -6 7 -11 16 -11 11 0 14 -5 10
-16 -3 -9 -6 -18 -6 -20 0 -2 -7 -4 -15 -4 -13 0 -15 47 -15 366 0 289 3 364
13 358 35 -20 47 -39 47 -74 0 -32 5 -41 41 -66 38 -26 39 -28 19 -36 -27 -10
-18 -25 21 -35 l30 -8 0 -277 -1 -277 43 -11 c23 -6 57 -15 75 -20 l32 -8 -1
341 0 342 -129 90 c-71 50 -245 172 -386 273 -142 100 -260 182 -264 182 -4 0
-58 -25 -119 -55 -61 -30 -114 -55 -117 -55 -3 0 -3 38 1 84 l7 83 -223 168
c-123 93 -297 224 -387 293 -149 113 -166 123 -187 114 -17 -8 -23 -17 -20
-32 2 -11 0 -18 -6 -15 -5 4 -6 11 -3 17 4 6 1 8 -7 6 -8 -3 -13 -11 -11 -17
1 -7 -2 -10 -7 -6 -13 7 -92 -45 -85 -56 3 -5 -2 -6 -10 -3 -10 4 -18 -1 -23
-12 -3 -11 -11 -23 -17 -27 -6 -5 -2 -6 9 -2 11 4 25 8 32 8 7 0 10 4 7 9 -5
7 10 12 28 9 4 0 11 11 14 25 5 19 9 22 15 12 6 -9 11 -10 17 -2 4 6 22 18 40
27 32 16 33 16 30 -5 -2 -15 -55 -53 -188 -135 -102 -63 -187 -116 -190 -118
-3 -2 -5 10 -5 26 0 16 3 29 7 29 5 0 7 5 5 11 -1 6 4 14 12 17 9 3 11 0 6 -8
-6 -9 -3 -9 12 -1 11 6 23 8 26 5 5 -5 3 18 -3 36 -1 3 -1 65 0 138 0 74 -3
131 -8 128 -5 -3 -9 -64 -11 -137 -1 -72 -4 -136 -7 -140 -3 -5 3 -6 13 -2 14
5 15 3 6 -7 -27 -30 -33 3 -33 197 0 195 0 196 20 178 11 -10 20 -31 20 -46 0
-20 8 -33 30 -46 l30 -17 0 -102 c0 -98 -1 -103 -26 -121 l-25 -19 21 -19 c16
-14 21 -15 18 -5 -2 8 3 14 10 12 8 -1 11 2 7 7 -7 12 29 33 40 23 5 -4 5 -2
1 5 -4 7 -14 10 -24 7 -11 -4 -8 2 8 15 14 11 28 21 32 21 3 0 7 58 7 128 l2
129 -48 39 c-26 21 -50 41 -53 44 -28 31 -165 128 -174 123 -6 -4 -48 -31 -93
-60 l-83 -53 0 53 0 52 -167 130 c-92 72 -172 131 -177 132 -6 1 -66 -35 -133
-79z m385 -126 l82 -63 0 -314 c0 -275 -2 -314 -15 -309 -13 5 -15 47 -15 295
l0 288 -52 40 c-29 22 -85 64 -125 94 -39 30 -76 58 -82 61 -7 5 -11 -107 -11
-360 0 -338 -1 -368 -17 -380 -17 -12 -18 10 -23 409 -3 232 -4 425 -2 429 2
5 42 -22 90 -59 48 -37 124 -96 170 -131z m-270 -243 c0 -411 0 -420 -20 -439
-12 -11 -26 -17 -31 -13 -6 3 -7 1 -3 -5 4 -7 1 -12 -8 -12 -9 0 -16 -5 -16
-10 0 -6 -8 -10 -17 -8 -10 2 -18 -2 -18 -9 0 -6 -3 -15 -7 -19 -5 -4 -8 171
-8 389 0 367 -4 422 -25 387 -3 -5 -11 -10 -16 -10 -6 0 -8 4 -4 9 10 17 -12
21 -26 5 -10 -12 -10 -15 1 -12 8 2 15 -3 16 -9 3 -27 5 -28 15 -10 24 41 29
13 27 -130 -2 -106 -6 -147 -15 -151 -17 -5 -18 119 -1 136 9 9 9 12 0 12 -6
0 -12 23 -14 58 -2 31 -5 -2 -6 -74 -1 -72 -5 -139 -8 -149 -7 -17 -6 -17 19
0 l27 17 0 -64 c0 -37 -5 -70 -12 -77 -10 -11 -10 -13 0 -7 9 5 12 -8 12 -54
0 -55 -2 -61 -25 -72 -22 -10 -25 -17 -23 -57 l1 -46 4 42 c3 30 10 46 24 53
18 10 19 7 19 -95 0 -103 -3 -111 -32 -106 -5 0 -8 -5 -8 -13 0 -7 -12 -22
-27 -31 l-26 -18 6 183 c4 101 7 298 7 439 l0 256 103 67 c56 36 105 67 109
67 4 1 7 -188 6 -420z m132 264 c7 -360 2 -655 -11 -608 -6 24 -3 625 4 625 4
0 7 -8 7 -17z m-40 -69 c0 -36 -3 -63 -7 -61 -8 5 -5 127 3 127 2 0 4 -30 4
-66z m110 -267 l-1 -292 53 -38 c29 -20 80 -56 113 -79 33 -23 121 -86 195
-140 236 -170 248 -178 255 -178 5 0 5 92 1 204 l-7 205 56 35 c30 20 57 36
59 36 3 0 2 -125 0 -278 l-5 -278 60 -43 c57 -41 72 -67 33 -55 -12 4 -12 2 3
-7 30 -19 49 -21 34 -3 -7 9 -8 14 -1 14 11 0 27 -19 27 -32 0 -3 4 -10 9 -15
5 -5 6 -2 1 6 -4 7 -4 12 1 10 22 -10 74 -44 74 -49 0 -3 -30 -3 -66 -2 -66 4
-69 5 -173 81 -176 128 -438 311 -445 311 -4 0 -4 -5 0 -12 4 -7 3 -8 -5 -4
-6 4 -9 11 -6 16 3 4 -65 59 -151 120 l-156 113 -56 -40 c-32 -22 -57 -45 -57
-51 0 -6 -4 -14 -9 -19 -5 -5 -6 -3 -2 5 4 6 4 12 1 12 -17 0 -274 -194 -268
-203 3 -6 1 -7 -6 -3 -7 5 -115 -66 -274 -181 l-262 -188 -70 -6 c-64 -5 -95
-2 -70 7 9 4 321 224 953 675 73 52 119 78 130 75 16 -5 17 14 14 285 -2 207
0 289 8 284 7 -4 10 -99 10 -298z m70 -43 c0 -188 -3 -283 -10 -279 -6 4 -10
112 -10 291 0 188 3 283 10 279 6 -4 10 -112 10 -291z m325 265 c19 -17 32
-36 28 -42 -4 -6 0 -8 10 -4 9 3 21 -1 29 -11 11 -13 11 -15 -2 -8 -8 4 -6 1
4 -8 10 -8 22 -14 25 -12 3 3 26 -14 51 -36 25 -22 36 -34 25 -27 -19 13 -19
13 -2 -7 9 -11 17 -27 18 -35 1 -8 5 -3 9 11 8 24 8 23 9 -7 1 -27 -2 -31 -16
-26 -15 6 -16 4 -6 -8 10 -13 19 -57 13 -69 -7 -13 -6 -106 1 -110 5 -3 -1
-11 -11 -18 -19 -12 -20 -9 -20 102 l0 114 -83 69 -82 70 3 -76 c3 -42 8 -77
13 -79 5 -2 9 -45 9 -95 0 -110 -17 -108 -22 3 -2 41 -2 -26 0 -150 3 -168 1
-233 -8 -255 -7 -16 -12 -34 -11 -38 0 -4 -8 -3 -20 3 -21 12 -21 13 -15 383
4 205 6 378 6 385 0 18 5 15 45 -19z m-75 -49 c-11 -7 -12 -14 -4 -27 10 -18
18 -608 8 -625 -3 -4 -11 -5 -19 -2 -8 4 -13 10 -10 14 3 4 -2 11 -11 14 -10
4 -13 2 -8 -7 4 -6 -12 6 -37 27 -24 22 -46 43 -47 48 -2 4 -8 6 -13 3 -5 -4
-7 0 -4 7 3 7 6 125 8 262 l2 249 30 19 c17 10 40 22 52 27 11 5 24 15 28 21
5 9 12 7 24 -4 14 -15 14 -18 1 -26z m-870 9 c13 -9 12 -10 -2 -5 -17 5 -18
-18 -18 -392 0 -395 -2 -422 -33 -422 -4 0 -7 172 -5 383 l3 383 -101 -69
-102 -69 0 -385 c0 -212 -4 -389 -9 -394 -4 -4 -9 175 -11 399 l-4 407 34 22
c18 12 76 51 128 87 52 36 97 65 100 65 3 1 12 -4 20 -10z m440 -4 c20 -24 6
-28 -15 -5 -10 11 -13 20 -8 20 6 0 16 -7 23 -15z m-385 -75 c-3 -5 0 -12 6
-16 7 -4 9 -3 5 4 -4 6 1 10 13 9 14 -1 17 -6 12 -20 -4 -11 -4 -43 0 -72 4
-29 8 -133 9 -231 3 -279 3 -281 -20 -304 -11 -11 -20 -17 -20 -13 0 4 -13 -6
-30 -22 l-30 -29 -1 250 c-1 137 -3 304 -5 371 l-3 122 35 -21 c18 -11 32 -24
29 -28z m382 -2 c-3 -7 -5 -2 -5 12 0 14 2 19 5 13 2 -7 2 -19 0 -25z m78 12
c3 -5 1 -10 -4 -10 -6 0 -11 5 -11 10 0 6 2 10 4 10 3 0 8 -4 11 -10z m-635
-804 c-7 -7 -10 114 -10 370 0 210 3 384 8 388 4 4 8 -162 10 -370 1 -245 -1
-381 -8 -388z m560 749 c20 -24 6 -28 -15 -5 -10 11 -13 20 -8 20 6 0 16 -7
23 -15z m-523 -102 c-2 -21 -4 -4 -4 37 0 41 2 58 4 38 2 -21 2 -55 0 -75z
m1173 61 c0 -2 -7 -4 -15 -4 -8 0 -15 4 -15 10 0 5 7 7 15 4 8 -4 15 -8 15
-10z m-1274 -376 c-4 -234 -10 -386 -16 -392 -7 -7 -10 70 -10 230 0 299 10
544 23 544 5 0 7 -146 3 -382z m621 335 c-3 -10 -5 -4 -5 12 0 17 2 24 5 18 2
-7 2 -21 0 -30z m3 -33 c8 -5 11 -12 7 -16 -4 -4 -15 0 -24 9 -18 18 -8 23 17
7z m1017 -77 c49 -36 95 -73 103 -81 13 -13 12 -13 -10 -2 -14 7 -29 19 -33
27 -9 14 -27 9 -27 -8 0 -6 5 -7 10 -4 6 3 10 2 10 -3 0 -10 47 -27 63 -23 5
1 30 -16 55 -37 26 -21 70 -55 99 -77 29 -21 49 -43 46 -48 -3 -6 -1 -7 5 -3
10 6 172 -108 172 -120 0 -9 -24 2 -45 21 -45 39 -55 46 -55 36 0 -6 12 -18
28 -28 15 -10 30 -23 35 -30 4 -6 17 -10 28 -8 29 6 137 -74 118 -87 -10 -7
-8 -8 7 -4 26 8 76 -40 55 -53 -9 -6 -10 -11 -2 -15 6 -4 11 -12 11 -18 0 -14
-26 4 -235 161 -99 74 -227 170 -285 213 -238 178 -250 188 -250 225 0 18 2
33 5 33 3 0 44 -30 92 -67z m-1536 16 c-9 -22 -10 -22 -10 -3 -1 11 2 24 6 27
12 12 14 0 4 -24z m-74 -31 c-3 -8 -6 -5 -6 6 -1 11 2 17 5 13 3 -3 4 -12 1
-19z m-207 -345 l-1 -358 -52 -34 c-28 -19 -56 -40 -62 -46 -5 -6 -37 -23 -70
-37 -50 -23 -60 -32 -62 -54 -2 -28 7 -28 11 0 3 21 20 16 21 -6 2 -28 10 -31
83 -30 62 0 75 4 128 38 32 20 86 58 119 84 33 25 75 55 93 65 17 11 32 23 32
27 0 4 16 14 36 23 19 8 33 19 30 24 -3 5 5 12 19 15 13 3 40 20 59 36 18 17
37 30 41 30 7 0 113 77 125 91 16 19 85 57 93 52 6 -3 7 -1 3 5 -4 7 -3 12 2
12 5 0 20 9 33 20 34 28 37 30 109 79 36 25 67 48 70 52 3 5 12 4 20 -1 21
-13 33 -12 24 2 -4 7 -3 8 5 4 9 -6 9 -11 0 -22 -9 -11 -7 -15 7 -21 11 -3 38
-22 62 -41 23 -19 42 -32 42 -28 0 3 8 -1 18 -10 36 -32 122 -95 122 -90 0 3
9 -3 20 -14 11 -11 27 -20 35 -20 8 0 15 -4 15 -9 0 -11 71 -57 82 -53 5 1 7
-4 5 -11 -1 -7 8 -12 24 -12 20 0 25 -4 21 -17 -3 -11 1 -18 10 -18 9 0 26 -9
40 -20 18 -14 28 -16 36 -8 8 8 9 5 5 -11 -3 -13 -1 -22 8 -23 8 0 19 -2 24
-2 6 -1 11 -6 13 -11 2 -6 14 -16 28 -23 13 -7 24 -17 24 -22 0 -6 6 -10 13
-10 7 0 21 -9 30 -21 10 -11 25 -18 33 -15 8 3 14 -1 14 -9 0 -8 9 -15 19 -15
10 0 22 -7 25 -16 3 -8 10 -12 16 -9 5 3 10 -1 10 -9 0 -17 -8 -18 -170 -21
-56 0 -98 3 -102 10 -5 6 -8 6 -8 -2 0 -9 -40 -12 -152 -12 -116 0 -162 -3
-189 -15 -20 -8 -39 -12 -43 -9 -3 4 -6 1 -6 -5 0 -7 -6 -12 -14 -12 -24 0
-105 -88 -112 -123 -2 -11 -8 -23 -13 -26 -8 -5 -15 -67 -12 -110 2 -34 23 10
27 55 7 99 96 190 209 212 92 19 575 16 650 -3 80 -21 134 -61 168 -126 25
-47 28 -63 25 -119 -3 -51 -8 -71 -26 -90 -12 -13 -20 -30 -18 -37 3 -7 -1
-10 -8 -7 -7 3 -18 -2 -25 -10 -17 -20 -80 -43 -384 -141 -148 -48 -275 -84
-283 -81 -8 3 -12 2 -9 -3 3 -5 -3 -12 -12 -14 -10 -3 159 -4 375 -3 l392 1 0
-110 c0 -60 -4 -104 -8 -97 -12 18 -1044 13 -1048 -6 -2 -8 0 -8 3 -1 4 8 8 8
13 -1 9 -15 -11 -15 538 -11 296 2 440 6 436 13 -4 5 4 4 17 -3 34 -18 68 -18
61 0 -3 8 -1 12 4 9 5 -4 9 16 9 45 0 32 4 51 11 50 17 -3 202 -23 269 -29 73
-6 95 -10 115 -17 19 -7 222 -29 235 -26 6 1 33 -1 60 -6 28 -5 54 -8 59 -7 4
2 22 -2 40 -7 17 -6 67 -13 111 -16 136 -10 176 -15 187 -21 6 -4 29 -8 52
-10 22 -2 66 -8 96 -13 69 -12 167 -23 200 -22 20 1 22 -1 10 -9 -11 -8 -8 -9
11 -4 29 6 42 -5 30 -24 -5 -9 -22 -9 -66 -2 -137 22 -505 7 -505 -21 0 -5 -8
-9 -17 -10 -41 -1 -88 -101 -85 -179 2 -47 26 -110 42 -110 6 0 10 -6 10 -13
0 -7 16 -19 35 -27 38 -15 38 -34 -1 -24 -13 3 -37 1 -52 -5 -25 -10 -28 -17
-30 -70 -3 -58 -2 -60 35 -88 21 -15 45 -37 55 -48 15 -19 31 -20 250 -23 128
-2 245 -4 259 -4 55 1 119 57 145 127 10 28 11 28 16 7 4 -12 2 -20 -3 -16 -5
3 -8 -5 -6 -18 1 -15 -3 -22 -12 -20 -8 2 -11 -3 -8 -12 7 -17 -70 -89 -84
-80 -5 3 -19 -1 -31 -7 -16 -9 -101 -14 -276 -16 -241 -4 -256 -3 -289 17 -43
25 -54 25 -83 0 -15 -13 -38 -20 -64 -20 -245 -2 -2731 7 -2746 10 -8 1 -28 0
-45 -4 -16 -3 -257 -6 -535 -5 -612 0 -670 1 -670 11 0 4 -7 5 -15 2 -15 -6
-37 33 -28 50 8 13 22 -15 16 -33 -4 -11 -1 -10 9 3 8 11 18 15 21 9 4 -5 27
-7 56 -3 31 4 55 2 62 -4 8 -8 13 -8 16 1 2 6 15 9 29 7 13 -2 24 0 24 6 0 5
-7 10 -15 10 -8 0 -15 5 -15 10 0 15 -153 13 -169 -2 -11 -11 -12 19 -6 161 3
96 10 183 16 193 5 10 7 18 4 18 -3 0 -8 0 -12 0 -4 0 -8 -7 -9 -16 -1 -8 -10
-24 -19 -34 -9 -10 -18 -26 -19 -34 -1 -9 -5 -15 -8 -14 -11 6 -39 -26 -34
-38 3 -7 0 -16 -6 -20 -7 -5 -8 -2 -4 7 4 8 -15 -11 -43 -41 -28 -30 -56 -55
-63 -55 -7 -1 -12 -7 -10 -14 2 -8 -5 -22 -14 -32 -10 -11 -12 -19 -6 -19 7 0
12 3 12 8 0 4 16 24 35 46 19 21 35 34 35 30 0 -5 -18 -29 -40 -53 -22 -25
-40 -49 -40 -55 -1 -6 -9 0 -20 13 -11 12 -18 27 -15 31 3 5 -20 30 -50 55
-30 26 -55 53 -55 60 0 7 -7 16 -16 19 -8 3 -13 10 -10 15 3 5 -2 15 -11 22
-14 12 -16 12 -8 0 5 -10 4 -12 -4 -7 -6 4 -9 11 -6 16 3 5 -3 15 -13 22 -11
7 -20 17 -20 21 -1 10 -42 61 -45 56 -1 -2 0 -80 3 -174 4 -127 6 -145 8 -71
1 55 5 96 10 92 4 -4 9 -57 12 -116 l5 -109 -22 14 c-26 17 -183 21 -183 5 0
-5 -4 -10 -10 -10 -5 0 -8 112 -7 290 l2 290 111 0 110 0 78 -89 c43 -50 85
-103 94 -119 10 -16 25 -40 35 -53 16 -21 19 -22 27 -8 5 9 54 73 110 143
l100 126 103 0 102 0 2 -280 c1 -154 5 -284 8 -290 21 -34 25 12 24 278 -1
233 -4 290 -16 303 -13 15 -11 16 19 14 18 -2 34 -4 36 -4 2 -1 0 -7 -5 -13
-8 -14 -11 -98 -3 -98 3 0 4 -110 3 -245 -2 -234 -1 -245 18 -255 11 -6 24 -8
29 -5 6 3 10 0 11 -7 0 -7 3 -8 5 -2 5 11 274 11 293 0 6 -4 11 -3 11 3 0 5
53 8 139 6 170 -5 173 -4 175 86 2 98 4 97 -232 99 -108 0 -198 3 -201 5 -12
13 20 16 179 18 205 2 203 2 196 107 -6 87 -13 90 -218 86 -127 -2 -158 0
-158 11 0 10 32 13 153 14 212 3 245 5 261 18 9 8 14 35 15 81 1 100 1 100
-221 100 -98 0 -178 4 -178 9 0 5 7 14 15 21 8 7 12 17 8 24 -15 23 -12 36 5
27 10 -5 75 -9 147 -9 106 -1 133 2 148 15 16 15 18 38 17 260 -1 134 0 244 2
245 8 6 57 -40 50 -47 -4 -3 -2 -6 3 -5 21 5 36 0 30 -10 -3 -5 -3 -10 2 -10
4 0 21 -11 37 -25 16 -14 33 -25 38 -25 5 0 6 -4 3 -10 -3 -5 1 -10 10 -10 9
0 13 -4 10 -10 -3 -5 1 -10 9 -10 9 0 28 -13 43 -28 16 -16 49 -45 75 -64 26
-20 44 -39 41 -42 -4 -3 0 -6 9 -6 20 0 60 -35 50 -44 -4 -4 -2 -6 3 -5 6 2
20 -2 32 -9 28 -15 59 -4 96 37 16 17 33 31 38 31 5 0 9 8 9 17 0 9 3 14 6 11
5 -6 48 31 157 135 33 31 62 57 64 57 2 0 15 12 28 28 l24 27 1 -236 c0 -212
2 -238 18 -252 14 -13 40 -15 157 -12 77 1 148 6 158 10 15 6 17 22 18 119 0
61 2 251 3 421 1 171 -1 324 -6 341 l-8 32 -137 1 -136 2 -31 -30 c-47 -46
-126 -119 -126 -117 0 1 -23 -20 -52 -46 -28 -27 -57 -47 -64 -44 -7 3 -11 0
-8 -8 5 -14 -65 -88 -77 -81 -4 3 -11 0 -15 -6 -5 -8 -2 -10 7 -4 8 4 1 -4
-16 -18 -16 -14 -34 -23 -39 -20 -5 4 -6 1 -2 -5 4 -7 3 -12 -3 -12 -5 0 -13
-9 -16 -20 -3 -11 -13 -20 -22 -20 -18 0 -134 95 -127 104 2 3 1 4 -3 1 -10
-8 -33 16 -26 28 3 6 1 7 -5 3 -7 -4 -26 7 -44 26 -18 18 -35 32 -38 31 -3 -1
-21 12 -40 31 -19 18 -45 38 -58 45 l-23 12 20 25 c15 19 18 34 14 56 -5 24
-3 29 7 23 9 -6 11 -4 5 6 -16 24 -17 89 -3 89 9 0 9 3 -2 10 -10 6 -11 10 -2
10 14 0 16 26 2 35 -6 3 -7 -1 -4 -9 3 -9 1 -16 -4 -16 -7 0 -11 96 -11 298
l-1 297 138 92 c75 50 140 92 145 92 4 1 7 -160 7 -356z m277 325 c-3 -8 -6
-5 -6 6 -1 11 2 17 5 13 3 -3 4 -12 1 -19z m520 -75 c-2 -21 -4 -6 -4 32 0 39
2 55 4 38 2 -18 2 -50 0 -70z m993 8 c0 -32 6 -40 55 -75 l54 -39 -2 -321 -2
-321 70 -52 c39 -28 72 -49 75 -46 3 3 -5 12 -17 20 l-23 15 0 349 0 349 25
-22 c19 -16 25 -32 25 -62 1 -38 5 -44 56 -79 30 -21 59 -35 64 -32 10 6 -46
66 -79 84 -7 5 -12 14 -10 20 4 11 29 -5 99 -63 9 -7 25 -16 35 -21 18 -7 17
-9 -10 -14 l-30 -6 -5 -203 -5 -202 -31 -19 c-36 -22 -34 -28 -41 112 -4 98
-6 107 -24 107 -18 0 -19 -9 -19 -174 0 -108 4 -177 10 -181 6 -4 7 -11 4 -17
-4 -7 -2 -8 5 -4 19 12 44 -14 30 -30 -7 -9 -8 -14 -1 -14 6 0 12 6 15 13 3 9
8 8 23 -3 15 -12 14 -9 -4 14 -17 22 -19 32 -11 47 5 10 11 19 14 19 2 0 11 3
20 6 14 6 16 -1 14 -49 -3 -56 -3 -56 44 -92 47 -36 60 -52 33 -42 -8 3 -17 0
-19 -7 -4 -10 1 -12 14 -9 10 3 19 1 19 -5 0 -5 8 -13 17 -16 15 -6 15 -4 -2
14 -20 22 -9 27 17 6 10 -7 15 -16 11 -19 -3 -4 -1 -13 5 -20 7 -8 10 -17 7
-20 -3 -4 -2 -5 2 -2 3 3 13 -1 21 -8 13 -10 14 -9 2 12 -19 36 2 25 134 -74
72 -54 113 -91 110 -99 -3 -7 2 -16 11 -20 9 -3 14 -10 11 -14 -3 -5 1 -9 9
-9 21 0 18 12 -7 31 -20 15 -21 16 -3 11 11 -4 0 12 -28 37 -29 27 -47 52 -47
66 0 12 -5 22 -11 22 -5 0 -7 5 -3 11 4 8 10 5 17 -7 10 -17 11 -17 17 1 8 24
-20 56 -37 42 -10 -7 -13 34 -13 200 l0 210 60 26 c33 15 63 27 66 27 2 0 5
-93 5 -207 l0 -208 -26 -8 c-31 -11 -32 -21 -3 -41 32 -22 38 -20 38 14 0 19
7 34 20 42 19 12 28 38 13 38 -5 0 -8 81 -8 180 0 99 -3 180 -7 180 -4 0 -5 6
-2 13 3 8 11 14 19 14 11 0 13 -58 14 -333 1 -293 -1 -333 -14 -328 -19 8 -21
94 -2 95 10 0 10 2 0 6 -7 2 -13 9 -13 14 0 6 5 7 10 4 15 -9 12 25 -4 40 -25
25 -37 -6 -35 -89 2 -74 2 -75 38 -101 l36 -25 3 387 c1 213 6 391 11 396 5 5
18 3 30 -5 15 -9 21 -23 21 -50 0 -31 6 -41 38 -64 l37 -27 -3 -134 -3 -134
-35 -15 c-30 -12 -34 -19 -34 -49 l0 -35 35 14 35 15 0 -198 0 -198 46 -32
c42 -31 44 -34 27 -47 -17 -13 -17 -14 1 -7 14 5 17 3 11 -7 -5 -8 -4 -11 3
-6 6 3 14 1 18 -5 5 -9 -1 -10 -22 -5 -16 3 -38 8 -50 10 -16 2 -213 140 -528
367 -23 17 -129 94 -236 172 -107 77 -225 161 -262 186 -38 24 -68 47 -68 51
0 6 48 0 89 -11 7 -2 15 4 16 14 2 11 -13 29 -41 49 l-44 31 0 315 c0 174 -2
313 -4 311 -2 -2 -7 -130 -11 -283 -8 -336 -23 -403 -27 -126 l-3 195 -2 -189
c-3 -165 -5 -187 -18 -176 -13 11 -15 66 -15 367 l0 354 35 -27 c29 -21 35
-33 35 -63z m-1583 7 c-2 -13 -4 -3 -4 22 0 25 2 35 4 23 2 -13 2 -33 0 -45z
m83 32 c0 -5 -4 -10 -10 -10 -5 0 -10 5 -10 10 0 6 5 10 10 10 6 0 10 -4 10
-10z m1392 -59 c-6 -31 -6 -51 0 -53 8 -3 11 -292 6 -465 -2 -39 -15 -43 -24
-8 -7 30 1 162 12 189 5 14 4 17 -4 12 -7 -4 -12 -3 -12 3 0 5 5 13 10 16 6 3
10 12 10 18 0 7 -4 6 -11 -3 -9 -12 -9 -11 -4 5 16 46 18 58 7 51 -11 -7 -10
14 4 56 5 16 3 19 -7 12 -11 -6 -12 -5 -3 7 8 10 9 33 1 82 -8 52 -8 74 1 88
16 24 15 34 0 22 -17 -13 -73 -24 -60 -11 17 17 77 46 80 38 2 -5 -1 -31 -6
-59z m-1405 7 c-3 -8 -6 -5 -6 6 -1 11 2 17 5 13 3 -3 4 -12 1 -19z m1626 -51
c66 -48 76 -60 58 -71 -10 -7 -61 38 -61 54 0 6 -4 9 -9 6 -5 -4 -11 -3 -13 2
-1 4 -18 18 -35 31 -18 12 -33 27 -33 32 0 13 9 7 93 -54z m-1620 18 c4 -8 2
-17 -3 -20 -6 -4 -10 3 -10 14 0 25 6 27 13 6z m1237 -13 c0 -4 -5 -13 -12
-20 -13 -13 -19 -130 -6 -138 4 -3 8 -59 8 -125 0 -117 0 -119 -20 -107 -19
12 -20 24 -20 196 0 159 2 183 15 178 8 -3 14 -2 14 2 -2 15 1 22 11 22 6 0
10 -4 10 -8z m-1243 -69 c-3 -10 -5 -2 -5 17 0 19 2 27 5 18 2 -10 2 -26 0
-35z m-70 15 c-3 -8 -6 -5 -6 6 -1 11 2 17 5 13 3 -3 4 -12 1 -19z m1224 -22
c-7 -8 -21 -18 -31 -21 -11 -3 -21 -20 -25 -41 -7 -41 -12 -40 -25 5 -7 26 -6
33 7 38 8 3 27 17 41 30 28 26 56 17 33 -11z m6 -33 c0 -16 -2 -22 -4 -15 -3
6 -12 12 -21 12 -13 0 -12 3 4 15 10 8 20 15 20 15 1 0 1 -12 1 -27z m514 15
c1 -7 3 -149 3 -314 2 -272 0 -301 -14 -292 -12 8 -16 30 -17 102 -1 59 2 82
7 66 7 -22 8 -20 9 15 0 30 -2 36 -9 25 -7 -10 -10 54 -9 198 1 173 4 212 15
212 8 0 15 -6 15 -12z m26 -481 c-1 -89 -3 -13 -3 168 0 182 2 254 3 162 2
-93 2 -241 0 -330z m-1770 461 c-3 -8 -6 -5 -6 6 -1 11 2 17 5 13 3 -3 4 -12
1 -19z m1209 -226 c-11 -11 -36 22 -36 47 0 14 -4 22 -8 16 -8 -12 -32 -13
-49 -2 -19 12 -17 93 2 101 12 4 15 -3 15 -37 0 -31 3 -38 10 -27 6 10 10 11
10 3 0 -7 5 -13 10 -13 6 0 10 21 10 47 0 30 6 53 18 66 16 18 17 15 20 -88 1
-59 0 -110 -2 -113z m-1209 176 c-3 -7 -5 -2 -5 12 0 14 2 19 5 13 2 -7 2 -19
0 -25z m0 -125 c-2 -21 -4 -4 -4 37 0 41 2 58 4 38 2 -21 2 -55 0 -75z m2085
-7 c3 -5 5 -18 3 -28 -3 -12 8 -26 33 -43 l37 -24 -3 -91 c-3 -88 -4 -91 -33
-105 l-29 -16 0 122 c0 67 -3 120 -6 117 -3 -3 -5 -73 -4 -154 1 -82 1 -167 0
-189 -2 -22 -3 -65 -4 -95 0 -30 -7 -61 -13 -68 -15 -16 -17 -32 -4 -32 5 0
11 -11 13 -24 4 -18 1 -23 -11 -21 -9 2 -19 4 -24 4 -4 1 -7 157 -7 347 l1
346 22 -18 c12 -11 25 -23 29 -28z m-82 -56 c-15 -27 -12 -50 5 -50 12 0 15
-15 13 -82 l-2 -83 -6 80 c-6 74 -7 76 -9 25 -1 -30 -2 -81 -1 -112 1 -36 -3
-58 -10 -58 -12 0 -14 353 -2 365 12 11 23 -65 12 -85z m-1920 49 c0 -6 -4 -7
-10 -4 -5 3 -10 11 -10 16 0 6 5 7 10 4 6 -3 10 -11 10 -16z m2099 -63 c14
-15 17 -26 11 -36 -7 -11 -10 -11 -10 -2 0 7 -14 26 -32 42 -25 23 -27 28 -11
24 12 -3 30 -16 42 -28z m-2262 -38 c-3 -7 -5 -2 -5 12 0 14 2 19 5 13 2 -7 2
-19 0 -25z m2351 -34 c2 -11 3 -138 2 -284 -1 -272 6 -394 21 -384 5 3 9 -3 9
-13 -1 -15 -5 -13 -25 10 -13 15 -28 26 -32 25 -15 -6 -18 60 -15 365 2 292 4
317 19 308 9 -5 18 -17 21 -27z m392 -75 c14 -11 19 -17 11 -13 -9 5 -12 3 -7
-5 4 -6 11 -9 16 -6 12 7 71 -35 65 -45 -3 -4 3 -14 13 -21 15 -13 16 -12 3 4
-18 23 -6 22 29 -5 16 -11 27 -25 24 -29 -3 -5 1 -6 9 -3 8 3 18 0 23 -7 4 -7
3 -10 -4 -5 -6 3 -13 2 -17 -3 -3 -6 5 -8 17 -6 14 3 34 -6 53 -22 l30 -26
-30 17 -30 17 24 -20 c12 -12 27 -19 31 -16 13 8 141 -85 134 -97 -4 -7 -2 -8
4 -4 13 8 104 -53 97 -64 -2 -4 2 -15 9 -25 10 -14 15 -15 21 -5 5 8 4 11 -2
7 -6 -4 -13 0 -17 8 -3 8 -1 15 4 15 14 0 25 -23 22 -45 -2 -18 -2 -19 8 -2
10 16 14 16 50 -10 30 -21 40 -35 40 -55 0 -28 -8 -34 -26 -20 -5 4 -3 0 6 -8
13 -13 15 -53 13 -270 -3 -281 -6 -317 -28 -317 -13 0 -15 42 -15 308 l0 307
-91 63 c-119 84 -240 169 -438 309 -89 63 -168 119 -176 125 -9 6 -22 5 -37
-2 -44 -22 -201 -93 -204 -93 -10 0 -2 31 12 45 13 13 19 13 33 3 14 -12 14
-11 3 4 -8 10 -20 14 -30 11 -9 -3 -14 -3 -11 1 4 4 25 9 47 11 21 2 55 14 75
25 20 12 42 18 48 14 8 -4 9 -3 5 4 -4 7 -5 12 -2 12 2 0 12 3 22 7 11 4 15 3
10 -5 -3 -6 -2 -13 4 -17 6 -4 10 6 10 25 l0 31 58 -40 c31 -23 68 -51 82 -62z
m-170 76 c-14 -8 -29 -14 -35 -14 -5 0 1 6 15 14 14 8 30 14 35 14 6 0 -1 -6
-15 -14z m-281 -302 c-1 -170 -4 -295 -6 -279 -4 22 -7 26 -14 15 -6 -10 -9
-2 -10 26 0 22 -2 49 -4 59 -2 11 -1 25 3 30 4 6 10 -14 13 -44 3 -30 6 70 7
223 1 152 4 277 7 277 3 0 4 -138 4 -307z m214 275 c-13 -6 -23 -14 -23 -17 0
-4 -10 -7 -22 -8 -18 -1 -16 2 12 17 19 11 40 19 45 19 6 0 0 -5 -12 -11z
m-542 -255 c2 -13 30 -27 28 -15 -3 19 2 33 10 27 5 -3 13 0 16 6 4 5 13 8 20
6 7 -3 12 3 11 15 -2 33 19 32 22 -2 2 -25 -3 -32 -38 -50 -22 -11 -51 -25
-64 -30 l-24 -9 1 152 0 152 8 -120 c4 -66 8 -125 10 -132z m-2047 197 c-14
-14 -39 14 -29 31 5 8 12 6 23 -5 11 -11 13 -19 6 -26z m2353 -12 c-3 -8 -6
-5 -6 6 -1 11 2 17 5 13 3 -3 4 -12 1 -19z m286 -9 c-11 -11 -63 -22 -63 -13
0 6 64 32 69 27 3 -2 0 -8 -6 -14z m179 -49 c21 -14 38 -28 38 -32 0 -17 -51
-7 -62 12 -7 11 -18 20 -25 20 -7 0 -13 2 -13 4 0 2 -3 12 -6 20 -8 20 14 12
68 -24z m-466 -4 c1 -29 -3 -35 -36 -50 -47 -20 -50 -20 -50 3 0 12 11 26 26
33 15 7 26 17 25 22 -3 8 17 26 29 26 3 0 6 -15 6 -34z m-169 -43 c-3 -10 -5
-4 -5 12 0 17 2 24 5 18 2 -7 2 -21 0 -30z m-2742 -70 c104 -83 498 -408 547
-450 15 -13 39 6 254 206 l238 220 128 3 128 3 0 -444 c0 -346 -3 -442 -12
-433 -15 15 -269 17 -283 2 -13 -12 -7 518 6 542 5 10 6 18 1 18 -12 0 -63
-55 -57 -62 6 -5 -63 -72 -220 -213 -55 -50 -115 -105 -133 -122 -33 -32 -34
-32 -50 -14 -10 10 -70 62 -135 116 -65 54 -115 100 -112 103 7 7 -35 52 -48
52 -6 0 0 -12 14 -27 13 -14 -12 3 -57 40 -73 60 -145 130 -90 87 11 -8 17
-10 13 -3 -4 6 -24 25 -45 41 l-37 30 3 -152 c2 -83 7 -166 12 -183 5 -21 5
-33 -1 -33 -12 0 -7 -186 5 -215 7 -16 7 -18 -5 -7 -9 8 -51 12 -136 12 l-123
0 -3 488 -2 487 -3 -498 c-1 -274 -5 -496 -9 -494 -5 3 -7 228 -5 501 l2 496
48 0 c45 0 54 -5 167 -97z m3495 5 c0 -34 5 -41 50 -70 27 -18 50 -36 50 -39
0 -3 -21 -12 -47 -20 l-48 -15 -7 -54 c-3 -30 -6 -155 -7 -278 -1 -212 -7
-262 -31 -262 -6 0 -10 152 -10 405 l0 406 25 -18 c18 -14 24 -27 25 -55z
m-74 -321 c1 -208 0 -376 -3 -373 -3 3 -5 24 -5 48 1 27 -2 37 -8 29 -4 -8 -6
-25 -4 -38 3 -14 1 -22 -4 -19 -13 8 -12 69 1 78 9 6 9 8 0 8 -10 0 -13 39
-13 160 0 88 3 160 8 160 4 0 7 -40 7 -90 0 -49 3 -82 7 -72 10 26 9 489 -1
473 -5 -8 -7 -20 -4 -28 3 -7 0 -13 -6 -13 -5 0 -9 14 -8 30 1 21 7 30 17 28
13 -3 15 -54 16 -381z m-518 349 c0 -22 -2 -23 -19 -8 -20 18 -25 27 -9 17 6
-3 10 -1 10 4 0 6 4 11 9 11 5 0 9 -11 9 -24z m-158 -106 c0 -66 -3 -120 -7
-120 -5 0 -7 54 -5 120 2 66 5 120 8 120 2 0 4 -54 4 -120z m130 -72 l0 -163
-25 -1 c-14 -1 -25 2 -25 8 0 5 6 6 13 2 6 -4 4 2 -5 13 -15 16 -18 40 -18
146 l0 126 28 15 c15 8 28 15 30 16 1 0 2 -73 2 -162z m694 126 c50 -28 61
-40 47 -48 -11 -7 -101 51 -101 65 0 13 2 12 54 -17z m-166 -106 l-3 -122 -30
-7 c-16 -4 -41 -10 -55 -14 l-25 -7 25 21 c14 11 31 19 38 16 6 -2 12 2 12 9
0 8 5 16 11 18 6 2 11 42 11 106 1 56 5 102 10 102 5 0 7 -55 6 -122z m-698
77 c-8 -10 -9 -15 -1 -15 6 0 11 -7 11 -16 0 -12 -5 -10 -20 9 -24 31 -25 34
-2 39 24 6 27 1 12 -17z m-90 -37 c0 -16 -3 -19 -11 -11 -6 6 -8 16 -5 22 11
17 16 13 16 -11z m1035 12 c3 -6 -1 -13 -10 -16 -19 -8 -30 0 -20 15 8 14 22
14 30 1z m-735 -42 c0 -28 -3 -39 -10 -32 -9 9 -3 74 6 74 2 0 4 -19 4 -42z
m749 -31 c1 -11 -3 -15 -10 -11 -6 3 -21 2 -32 -3 -60 -27 -117 -42 -117 -30
0 21 14 33 58 47 23 7 42 17 42 22 0 5 10 12 23 17 23 9 35 -4 36 -42z m22
-142 c1 -93 1 -192 -1 -220 l-3 -50 -7 50 c-4 32 -7 -11 -8 -121 -2 -138 -5
-173 -16 -177 -8 -3 -17 1 -20 9 -7 18 -8 394 -2 394 2 0 11 3 19 6 11 4 13
-1 10 -19 -3 -14 0 -28 6 -31 7 -5 11 10 11 46 -1 41 -3 49 -11 36 -5 -10 -16
-18 -24 -18 -11 0 -14 24 -17 105 -2 58 0 106 5 107 29 5 31 0 33 -72 1 -41
-2 -80 -7 -86 -5 -7 -3 -11 6 -11 12 0 15 20 15 115 0 64 2 113 4 111 2 -2 5
-80 7 -174z m-970 138 c-12 -20 -14 -14 -5 12 4 9 9 14 11 11 3 -2 0 -13 -6
-23z m1095 -51 c12 3 74 -34 74 -45 0 -4 5 -5 12 -1 6 4 8 3 4 -4 -3 -6 3 -17
14 -25 11 -7 17 -17 13 -20 -11 -12 -40 -7 -53 8 -10 12 -9 15 4 15 10 0 14 5
11 10 -4 6 -11 7 -17 4 -6 -4 -17 2 -25 12 -8 10 -17 19 -21 19 -11 -1 -42 29
-42 40 0 5 4 4 9 -3 4 -7 12 -12 17 -10z m-1279 -5 c-4 7 -1 10 10 9 9 -2 19
-9 21 -16 3 -7 0 -10 -7 -6 -6 4 -11 3 -11 -2 0 -6 10 -12 23 -16 32 -8 80
-53 71 -67 -4 -7 -1 -10 7 -7 8 3 13 11 11 17 -1 7 10 4 25 -6 39 -24 53 -40
46 -47 -4 -3 5 -6 18 -6 19 0 21 -2 9 -10 -13 -8 -12 -10 4 -10 17 0 18 -5 12
-57 -4 -32 -7 -86 -6 -119 1 -79 -7 -114 -26 -107 -10 3 -14 22 -14 60 0 33
-4 52 -10 48 -16 -10 -11 11 6 26 14 12 14 14 -4 20 -19 7 -20 11 -9 40 9 25
9 33 0 36 -7 3 -13 13 -13 24 0 10 -3 18 -7 18 -33 -5 -45 2 -39 25 3 14 2 28
-4 31 -7 4 -10 -49 -10 -152 l0 -158 -25 0 -25 0 0 162 c0 89 -4 164 -9 167
-5 4 -7 -2 -4 -12 2 -11 -2 -26 -10 -34 -10 -10 -12 -19 -5 -31 5 -11 5 -30
-1 -51 -5 -19 -8 -36 -6 -38 1 -2 5 -30 8 -63 4 -38 3 -53 -3 -40 -8 18 -9 17
-9 -7 -1 -24 -21 -53 -21 -30 0 5 -7 9 -15 9 -8 0 -11 -5 -8 -10 4 -6 0 -8 -9
-4 -12 4 -14 1 -11 -14 5 -19 -3 -19 -278 -18 -270 0 -282 1 -254 17 17 9 37
17 45 17 22 1 63 16 78 28 8 6 32 12 54 14 59 6 154 43 137 54 -8 5 -9 9 -4 9
6 0 15 -4 21 -10 11 -11 105 31 144 64 22 19 23 19 10 1 l-15 -20 24 20 c13
11 30 37 38 57 9 23 25 41 41 48 l27 10 -29 -6 c-23 -4 -27 -3 -19 8 5 7 9 43
9 80 -1 57 1 65 13 55 11 -9 13 -9 8 0z m1348 -105 c-3 -3 -11 0 -18 7 -9 10
-8 11 6 5 10 -3 15 -9 12 -12z m60 -229 c0 -78 4 -119 10 -116 6 3 4 0 -2 -8
-14 -14 -18 -33 -5 -26 4 3 6 -37 4 -89 -2 -53 -8 -94 -13 -94 -6 0 -7 4 -4
10 3 6 -1 7 -9 4 -14 -5 -16 15 -16 176 0 142 3 180 13 174 9 -6 9 -5 0 7 -7
8 -11 45 -10 92 1 42 -1 77 -5 77 -16 0 -7 19 10 22 21 4 27 -48 27 -229z
m-1075 76 c0 -27 3 -49 8 -49 11 0 14 -168 2 -175 -6 -4 -10 12 -11 42 -1 26
-5 62 -9 78 l-8 30 -2 -35 c-1 -19 -3 -51 -3 -70 -2 -24 -7 -35 -17 -35 -13 0
-15 25 -17 153 l-3 153 30 -21 c26 -19 30 -27 30 -71z m-73 9 c-3 -8 -6 -5 -6
6 -1 11 2 17 5 13 3 -3 4 -12 1 -19z m143 -39 c0 -6 5 -7 12 -3 7 4 8 3 4 -5
-4 -6 -7 -33 -7 -59 0 -26 -2 -64 -5 -85 -5 -32 -8 -36 -21 -26 -14 13 -14 42
2 84 5 16 5 17 -4 5 -6 -8 -11 -10 -11 -4 0 5 6 16 13 23 10 11 9 12 -2 6 -11
-6 -13 -3 -9 13 4 12 2 25 -3 28 -5 3 -9 16 -9 30 0 22 3 23 20 14 11 -6 20
-15 20 -21z m-143 -1 c-3 -8 -6 -5 -6 6 -1 11 2 17 5 13 3 -3 4 -12 1 -19z
m197 -40 c-2 -4 1 -10 7 -14 7 -4 9 -3 5 4 -3 6 -2 13 4 17 6 4 9 -28 8 -92
-1 -95 -2 -96 -8 -33 l-7 65 -1 -57 c-2 -44 -6 -58 -17 -58 -12 0 -15 19 -15
107 0 94 2 105 14 88 8 -11 12 -23 10 -27z m-749 2 c-3 -5 -12 -10 -18 -10 -7
0 -6 4 3 10 19 12 23 12 15 0z m552 -102 c-2 -13 -4 -3 -4 22 0 25 2 35 4 23
2 -13 2 -33 0 -45z m327 17 c8 -9 13 -22 10 -29 -3 -7 1 -16 9 -19 15 -6 21
-67 6 -67 -5 0 -9 11 -9 24 0 14 -7 31 -15 40 -8 8 -15 20 -15 27 0 7 -15 26
-32 42 l-33 29 32 -16 c17 -8 38 -23 47 -31z m563 -47 c-2 -18 -4 -4 -4 32 0
36 2 50 4 33 2 -18 2 -48 0 -65z m-970 45 c-3 -10 -5 -4 -5 12 0 17 2 24 5 18
2 -7 2 -21 0 -30z m363 -48 c0 -29 -2 -32 -25 -27 -22 4 -25 9 -25 48 l0 44
25 -16 c18 -12 25 -25 25 -49z m143 -31 c-3 -9 2 -11 16 -7 22 6 26 -3 12 -26
-6 -9 -11 -10 -15 -2 -4 6 -15 11 -24 11 -9 1 -24 16 -33 34 l-15 34 32 -15
c19 -9 30 -21 27 -29z m-99 1 c3 -8 1 -15 -4 -15 -6 0 -10 7 -10 15 0 8 2 15
4 15 2 0 6 -7 10 -15z m156 -35 c0 -5 -5 -10 -11 -10 -5 0 -7 5 -4 10 3 6 8
10 11 10 2 0 4 -4 4 -10z m412 -25 c3 -14 1 -25 -3 -25 -5 0 -9 11 -9 25 0 14
2 25 4 25 2 0 6 -11 8 -25z m-206 -7 l19 -21 -27 18 c-29 18 -34 25 -20 25 5
0 17 -10 28 -22z m-1948 -125 c-10 -2 -28 -2 -40 0 -13 2 -5 4 17 4 22 1 32
-1 23 -4z m215 0 c-13 -2 -35 -2 -50 0 -16 2 -5 4 22 4 28 0 40 -2 28 -4z
m-2914 -154 c21 -21 36 -39 32 -39 -3 0 7 -11 22 -24 15 -13 24 -27 19 -30 -6
-3 -16 4 -25 17 -8 12 -38 46 -68 75 -29 29 -45 50 -36 46 9 -3 34 -24 56 -45z
m1290 -42 c-1 -35 1 -69 5 -75 4 -7 2 -12 -3 -12 -6 0 -11 4 -11 10 0 5 -86
10 -214 12 l-215 3 2 -50 2 -50 194 3 c155 2 193 0 189 -10 -3 -7 -2 -38 1
-68 l7 -55 -121 3 c-66 1 -155 3 -198 5 l-79 2 5 -42 c2 -23 0 -46 -4 -50 -4
-4 95 -7 221 -5 l230 3 0 -71 c0 -40 -4 -70 -10 -70 -5 0 -10 5 -10 10 0 16
-597 13 -603 -2 -10 -30 -14 2 -7 60 12 97 12 492 0 492 -6 0 -10 5 -10 10 0
6 112 10 316 10 l315 0 -2 -63z m3838 44 c24 -11 48 -31 56 -48 17 -34 29
-113 16 -113 -5 0 -9 5 -9 10 0 15 -133 13 -149 -2 -10 -11 -11 -8 -6 14 9 37
-6 39 -185 36 l-145 -3 -3 -37 c-4 -46 -11 -44 213 -58 94 -6 187 -16 208 -22
51 -15 93 -65 101 -121 8 -51 -10 -136 -30 -144 -8 -3 -11 -10 -7 -16 3 -5 2
-7 -4 -4 -6 4 -19 -1 -29 -9 -10 -9 -12 -12 -4 -8 12 5 12 4 4 -5 -17 -19
-504 -15 -549 3 -47 20 -89 79 -81 112 5 18 3 30 -6 35 -7 5 29 9 84 9 93 0
97 -1 100 -22 3 -23 6 -23 162 -26 169 -3 186 1 186 44 0 35 -24 41 -211 53
-196 13 -262 29 -288 71 -10 17 -20 28 -22 26 -3 -4 -4 108 0 148 2 23 60 75
94 85 18 5 129 10 247 10 191 0 220 -2 257 -18z m-4861 -73 c-9 -12 -16 -19
-16 -15 0 11 24 47 28 42 2 -2 -3 -14 -12 -27z m-126 -100 c0 -10 31 2 55 21
19 15 19 15 5 -4 -40 -53 -55 -57 -72 -20 -6 13 -15 22 -21 18 -6 -3 -7 -1 -3
5 4 7 3 12 -2 12 -5 0 -12 10 -15 22 -5 18 0 15 23 -12 17 -19 30 -38 30 -42z
m4793 55 c-29 -2 -78 -2 -110 0 -32 2 -8 3 52 3 61 0 87 -1 58 -3z m-3840 -10
c-13 -2 -35 -2 -50 0 -16 2 -5 4 22 4 28 0 40 -2 28 -4z m4139 -20 c-5 -10 -8
-23 -5 -29 2 -6 -1 -24 -7 -40 -11 -28 -12 -29 -26 -9 -8 11 -17 19 -19 18 -3
-1 -14 1 -25 4 -33 9 -22 25 14 21 29 -3 37 1 51 24 18 31 31 39 17 11z m-715
-15 c-3 -8 -6 -5 -6 6 -1 11 2 17 5 13 3 -3 4 -12 1 -19z m496 0 c5 -16 0 -18
-41 -14 -26 3 -91 8 -144 11 -54 4 -98 10 -98 14 0 3 63 6 139 7 127 0 140 -1
144 -18z m95 5 c-10 -2 -26 -2 -35 0 -10 3 -2 5 17 5 19 0 27 -2 18 -5z m65 0
c-7 -2 -21 -2 -30 0 -10 3 -4 5 12 5 17 0 24 -2 18 -5z m-5220 -168 c14 5 60
-62 52 -76 -4 -5 0 -6 8 -4 7 3 22 -3 32 -15 10 -11 15 -20 11 -20 -4 0 -1 -7
8 -15 8 -8 19 -15 24 -15 5 0 15 -11 22 -25 7 -14 26 -32 42 -39 16 -8 26 -11
23 -6 -3 4 2 13 10 20 8 7 15 18 15 26 0 7 5 16 12 20 7 4 8 3 4 -4 -4 -7 -2
-12 3 -12 6 0 11 9 11 20 0 11 5 20 10 20 6 0 10 9 10 21 0 11 4 18 8 15 5 -3
26 17 46 45 21 27 43 52 48 55 5 3 8 -24 7 -66 -1 -39 -5 -66 -10 -59 -13 22
-43 19 -67 -6 -13 -14 -21 -25 -19 -25 2 0 -15 -20 -39 -45 -29 -31 -50 -45
-68 -45 -14 0 -26 4 -26 9 0 13 -126 141 -139 141 -18 0 -31 -36 -31 -84 0
-25 -4 -46 -10 -46 -5 0 -10 17 -10 38 0 20 -2 75 -3 122 -2 47 -1 77 1 68 2
-9 9 -15 15 -13z m5301 -11 c3 -8 2 -12 -4 -9 -6 3 -10 10 -10 16 0 14 7 11
14 -7z m-397 0 c-3 -3 -12 -4 -19 -1 -8 3 -5 6 6 6 11 1 17 -2 13 -5z m-4592
-42 l-28 -27 23 33 c12 18 25 31 28 27 3 -3 -7 -18 -23 -33z m4515 22 c25 -2
89 -7 142 -10 54 -4 95 -11 92 -15 -3 -5 -67 -9 -142 -9 -136 1 -137 1 -156
27 -19 26 -19 26 0 18 10 -4 39 -9 64 -11z m227 10 c-3 -3 -12 -4 -19 -1 -8 3
-5 6 6 6 11 1 17 -2 13 -5z m-4912 -94 c10 -11 16 -20 13 -20 -3 0 -13 9 -23
20 -10 11 -16 20 -13 20 3 0 13 -9 23 -20z m4426 -37 c13 -16 12 -17 -3 -4
-10 7 -18 15 -18 17 0 8 8 3 21 -13z m-4756 -111 c35 -1 64 3 73 10 10 8 13 9
9 1 -5 -8 4 -11 31 -9 42 2 65 13 57 27 -4 5 3 9 14 9 17 0 18 -3 8 -30 -10
-25 -17 -30 -47 -31 -58 -3 -212 0 -215 3 -1 2 -5 17 -9 33 -7 28 -6 29 7 10
12 -16 28 -21 72 -23z m83 31 c-21 -2 -57 -2 -80 0 -24 2 -7 4 37 4 44 0 63
-2 43 -4z m610 0 c-10 -2 -26 -2 -35 0 -10 3 -2 5 17 5 19 0 27 -2 18 -5z m80
0 c-10 -2 -28 -2 -40 0 -13 2 -5 4 17 4 22 1 32 -1 23 -4z m300 0 c-26 -2 -71
-2 -100 0 -29 2 -8 3 47 3 55 0 79 -1 53 -3z m344 0 c-51 -2 -132 -2 -180 0
-48 1 -6 3 93 3 99 0 138 -2 87 -3z m3796 0 c-60 -2 -156 -2 -215 0 -60 1 -11
3 107 3 118 0 167 -2 108 -3z"/>
<path d="M2778 3792 c-27 -16 -28 -20 -28 -95 0 -74 1 -77 19 -67 11 5 22 10
26 10 3 0 5 -35 3 -77 -3 -74 -4 -78 -31 -91 -16 -8 -26 -16 -23 -19 2 -3 18
3 35 13 l31 18 0 163 c0 90 -1 163 -2 163 -2 0 -15 -8 -30 -18z m11 -138 c-21
-25 -26 -15 -28 50 -1 53 2 66 16 75 16 9 18 4 21 -51 2 -35 -2 -65 -9 -74z"/>
<path d="M2728 3773 c-2 -5 -1 -24 3 -43 l6 -35 2 43 c1 39 -3 52 -11 35z"/>
<path d="M2751 3534 c0 -11 3 -14 6 -6 3 7 2 16 -1 19 -3 4 -6 -2 -5 -13z"/>
<path d="M2751 3494 c0 -11 3 -14 6 -6 3 7 2 16 -1 19 -3 4 -6 -2 -5 -13z"/>
<path d="M2802 3413 c-1 -35 -6 -63 -10 -63 -16 0 -32 24 -33 50 -2 24 -2 24
-6 2 -3 -14 3 -32 12 -42 16 -18 15 -19 -13 -34 -23 -12 -29 -21 -25 -36 3
-11 8 -20 10 -20 3 0 3 9 0 19 -5 20 17 36 34 25 5 -3 8 0 7 7 -2 6 3 14 10
16 9 3 12 -13 12 -61 0 -59 -3 -67 -25 -82 -14 -9 -25 -21 -25 -26 0 -5 7 -2
15 6 9 9 23 19 31 24 12 7 14 32 11 143 -1 74 -4 106 -5 72z"/>
<path d="M2731 3374 c0 -11 3 -14 6 -6 3 7 2 16 -1 19 -3 4 -6 -2 -5 -13z"/>
<path d="M2633 3340 c0 -25 2 -35 4 -22 2 12 2 32 0 45 -2 12 -4 2 -4 -23z"/>
<path d="M2653 3335 c0 -27 2 -38 4 -22 2 15 2 37 0 50 -2 12 -4 0 -4 -28z"/>
<path d="M2640 3259 c0 -5 5 -7 10 -4 6 3 10 8 10 11 0 2 -4 4 -10 4 -5 0 -10
-5 -10 -11z"/>
<path d="M2727 3223 c-2 -21 -1 -42 3 -46 4 -4 8 13 8 38 3 55 -4 59 -11 8z"/>
<path d="M2752 3230 c0 -19 2 -27 5 -17 2 9 2 25 0 35 -3 9 -5 1 -5 -18z"/>
<path d="M2801 3128 c0 -37 2 -69 7 -71 4 -3 6 18 4 46 -5 86 -9 96 -11 25z"/>
<path d="M2732 3140 c0 -14 2 -19 5 -12 2 6 2 18 0 25 -3 6 -5 1 -5 -13z"/>
<path d="M2720 3073 c0 -28 3 -34 10 -23 13 20 13 60 0 60 -5 0 -10 -17 -10
-37z"/>
<path d="M2753 3065 c0 -27 2 -38 4 -22 2 15 2 37 0 50 -2 12 -4 0 -4 -28z"/>
<path d="M2651 3014 c0 -11 3 -14 6 -6 3 7 2 16 -1 19 -3 4 -6 -2 -5 -13z"/>
<path d="M2721 3014 c0 -11 3 -14 6 -6 3 7 2 16 -1 19 -3 4 -6 -2 -5 -13z"/>
<path d="M3660 2905 c0 -8 2 -15 4 -15 2 0 6 7 10 15 3 8 1 15 -4 15 -6 0 -10
-7 -10 -15z"/>
<path d="M3477 2739 c7 -7 15 -10 18 -7 3 3 -2 9 -12 12 -14 6 -15 5 -6 -5z"/>
<path d="M3660 2720 c0 -5 5 -10 10 -10 6 0 10 5 10 10 0 6 -4 10 -10 10 -5 0
-10 -4 -10 -10z"/>
<path d="M3657 2676 c-3 -8 -2 -18 4 -21 5 -4 7 -11 3 -16 -3 -5 -10 -6 -16
-3 -7 4 -8 2 -4 -5 4 -6 11 -9 16 -6 4 3 10 -2 13 -10 4 -9 18 -13 37 -12 l32
2 -30 25 c-16 14 -33 33 -39 44 -9 16 -11 16 -16 2z m43 -51 c10 -12 10 -15
-3 -15 -8 0 -17 7 -21 15 -3 8 -2 15 3 15 5 0 14 -7 21 -15z"/>
<path d="M3720 2586 c0 -2 7 -7 16 -10 8 -3 12 -2 9 4 -6 10 -25 14 -25 6z"/>
<path d="M3414 3600 c1 -8 10 -16 20 -18 11 -3 16 0 11 7 -3 6 -10 9 -15 6 -5
-3 -10 0 -13 7 -2 8 -3 7 -3 -2z"/>
<path d="M3526 3515 c4 -8 11 -15 16 -15 6 0 5 6 -2 15 -7 8 -14 15 -16 15 -2
0 -1 -7 2 -15z"/>
<path d="M3862 3291 c6 -11 15 -18 19 -15 4 2 21 -9 38 -25 17 -16 33 -26 36
-21 2 4 -20 24 -50 44 -39 26 -52 31 -43 17z"/>
<path d="M4056 3138 c3 -5 10 -6 15 -3 13 9 11 12 -6 12 -8 0 -12 -4 -9 -9z"/>
<path d="M4110 3116 c0 -9 73 -76 82 -76 14 0 8 7 -37 44 -25 21 -45 35 -45
32z"/>
<path d="M4213 3025 c0 -8 4 -12 8 -9 4 2 10 -2 12 -8 4 -8 6 -9 6 -2 1 6 -5
17 -12 23 -10 8 -14 7 -14 -4z"/>
<path d="M4252 2984 c3 -3 14 -7 25 -8 10 -2 19 -9 19 -17 1 -8 2 -18 3 -23 0
-5 8 -3 16 4 14 11 13 15 -7 29 -22 15 -68 28 -56 15z"/>
<path d="M4460 2835 c0 -7 61 -37 66 -33 2 3 -12 12 -31 21 -19 9 -35 15 -35
12z"/>
<path d="M4567 2759 c7 -7 15 -10 18 -7 3 3 -2 9 -12 12 -14 6 -15 5 -6 -5z"/>
<path d="M2062 3177 c-6 -7 -52 -40 -101 -73 -70 -45 -91 -64 -91 -81 0 -26
15 -30 27 -9 9 17 136 102 164 111 13 4 19 15 19 36 0 32 -3 35 -18 16z"/>
<path d="M1980 3014 c-52 -35 -99 -65 -103 -67 -5 -1 -7 -12 -5 -23 3 -19 12
-15 106 44 83 52 102 69 102 88 0 13 -1 23 -2 23 -2 -1 -46 -30 -98 -65z"/>
<path d="M1936 3018 c3 -5 10 -6 15 -3 13 9 11 12 -6 12 -8 0 -12 -4 -9 -9z"/>
<path d="M2000 2920 c-41 -27 -87 -55 -102 -61 -20 -8 -28 -19 -28 -36 0 -14
3 -23 8 -21 4 2 51 29 105 62 79 48 97 63 97 82 0 13 -1 24 -2 23 -2 0 -37
-22 -78 -49z"/>
<path d="M2950 2893 c-14 -10 -34 -25 -44 -35 -11 -10 -26 -18 -33 -18 -7 0
-13 -5 -13 -11 0 -5 -4 -7 -10 -4 -5 3 -10 1 -10 -5 0 -6 -5 -8 -12 -4 -7 4
-8 3 -4 -4 4 -6 -4 -16 -16 -23 -13 -7 -27 -18 -31 -25 -4 -8 -17 -14 -27 -14
-11 0 -20 -7 -20 -15 0 -8 -6 -15 -14 -15 -7 0 -25 -9 -38 -20 -14 -10 -29
-16 -32 -12 -4 4 -6 1 -4 -6 3 -12 -28 -35 -64 -48 -10 -3 -18 -13 -18 -22 0
-8 -3 -12 -6 -9 -4 4 -24 -7 -44 -23 -21 -17 -43 -30 -49 -30 -6 0 -11 -4 -11
-8 0 -4 -15 -16 -32 -27 -18 -10 -40 -27 -49 -37 -9 -10 -21 -18 -28 -18 -6 0
-11 -4 -11 -10 0 -5 -6 -10 -13 -10 -15 0 -77 -55 -77 -69 0 -6 9 -15 20 -21
17 -9 28 -7 58 11 44 27 195 131 202 139 3 3 21 17 40 30 19 13 41 30 48 37 7
7 20 13 27 13 8 0 19 9 25 20 6 11 17 20 25 20 8 0 19 8 24 18 6 9 11 13 11 9
0 -5 7 -2 15 7 23 23 168 122 171 116 1 -3 11 6 23 20 11 14 20 21 21 16 0 -4
8 1 18 13 l17 21 29 -25 c16 -14 36 -25 45 -25 13 0 13 -2 3 -9 -10 -6 -6 -11
15 -19 16 -5 37 -17 46 -27 9 -9 17 -14 17 -11 0 3 9 -3 20 -14 12 -12 26 -18
32 -14 6 4 8 3 4 -4 -7 -12 33 -44 46 -36 4 3 8 -2 8 -10 0 -9 5 -17 10 -17 6
-1 16 -2 23 -3 6 -1 11 -8 9 -15 -1 -7 1 -10 6 -7 4 2 14 1 22 -5 13 -7 13 -9
0 -9 -8 0 -2 -7 14 -15 15 -8 32 -15 38 -15 11 0 31 -16 61 -48 12 -13 35 -31
51 -39 16 -8 38 -24 49 -34 22 -20 53 -24 76 -10 22 14 7 36 -56 83 -32 23
-62 49 -66 55 -4 7 -17 13 -27 13 -11 0 -20 4 -20 9 0 5 -9 13 -20 16 -11 4
-18 11 -15 16 4 5 -1 9 -10 9 -8 0 -18 7 -21 15 -4 8 -10 12 -15 9 -5 -3 -12
1 -15 10 -3 9 -12 12 -22 9 -9 -4 -14 -2 -10 2 5 5 -22 29 -60 53 -37 25 -69
48 -72 51 -8 10 -85 66 -90 66 -15 1 -29 18 -24 28 4 7 4 9 -1 5 -4 -4 -19 2
-33 12 -30 24 -50 25 -82 3z m133 -70 c183 -131 482 -347 506 -365 16 -12 19
-18 9 -18 -14 0 -90 53 -457 318 l-154 111 -56 -40 c-573 -413 -658 -472 -671
-467 -7 2 715 528 727 528 1 0 44 -30 96 -67z"/>
<path d="M2065 2860 c-3 -6 -49 -35 -101 -66 -77 -45 -94 -59 -94 -79 0 -24 1
-24 58 14 31 21 78 50 105 65 35 21 47 34 47 52 0 26 -5 30 -15 14z"/>
<path d="M2020 2730 c-30 -21 -76 -49 -102 -62 -36 -17 -48 -29 -48 -46 l0
-23 28 18 c15 11 62 39 105 63 61 35 77 48 77 67 0 13 -1 23 -2 22 -2 -1 -28
-18 -58 -39z"/>
<path d="M3040 2703 c-19 -3 -40 -9 -47 -14 -7 -7 -13 -6 -18 1 -9 14 -100 13
-113 -3 -17 -20 -18 -107 -1 -118 10 -6 10 -9 2 -9 -18 0 -17 -104 0 -118 7
-6 58 -11 117 -11 124 0 140 9 140 74 0 22 -5 46 -11 52 -8 8 -8 13 0 17 6 4
11 28 11 54 0 35 -5 52 -20 65 -11 9 -21 16 -23 15 -1 0 -18 -3 -37 -5z m-70
-70 l0 -48 -48 0 -47 0 0 47 0 48 48 0 47 0 0 -47z m120 0 l0 -48 -45 0 -45 0
0 48 0 47 45 0 45 0 0 -47z m-120 -127 l0 -44 -48 -4 -49 -3 1 48 1 47 47 0
48 0 0 -44z m125 0 l0 -44 -48 -4 -47 -3 0 48 0 47 48 0 47 0 0 -44z"/>
<path d="M1973 2607 c-94 -57 -102 -64 -102 -92 0 -16 3 -25 5 -19 3 7 50 40
104 75 65 41 100 70 100 81 0 10 -1 18 -2 18 -2 -1 -49 -29 -105 -63z"/>
<path d="M1852 2630 c0 -14 2 -19 5 -12 2 6 2 18 0 25 -3 6 -5 1 -5 -13z"/>
<path d="M1940 2620 c0 -5 5 -10 11 -10 5 0 7 5 4 10 -3 6 -8 10 -11 10 -2 0
-4 -4 -4 -10z"/>
<path d="M2066 2605 c-3 -8 -1 -15 4 -15 6 0 10 7 10 15 0 8 -2 15 -4 15 -2 0
-6 -7 -10 -15z"/>
<path d="M1856 2565 c-9 -26 -7 -32 5 -12 6 10 9 21 6 23 -2 3 -7 -2 -11 -11z"/>
<path d="M2015 2569 c-4 -6 -4 -13 -1 -16 3 -4 6 -1 6 5 0 6 8 13 18 15 15 4
15 5 0 6 -9 0 -20 -4 -23 -10z"/>
<path d="M1934 2519 c-19 -22 -19 -22 3 -10 24 12 39 31 25 31 -5 0 -17 -10
-28 -21z"/>
<path d="M2055 2531 c-3 -6 -29 -21 -58 -36 -81 -40 -123 -65 -108 -65 16 0
160 78 179 97 7 7 9 13 3 13 -5 0 -12 -4 -16 -9z"/>
<path d="M1870 2469 c0 -5 5 -7 10 -4 6 3 10 8 10 11 0 2 -4 4 -10 4 -5 0 -10
-5 -10 -11z"/>
<path d="M3275 2329 c-4 -6 -4 -13 -1 -16 3 -4 6 -1 6 5 0 8 54 11 182 11 99
1 183 3 186 6 3 3 -78 5 -181 5 -121 0 -188 -4 -192 -11z"/>
<path d="M3763 2333 c9 -2 23 -2 30 0 6 3 -1 5 -18 5 -16 0 -22 -2 -12 -5z"/>
<path d="M3818 2333 c7 -3 16 -2 19 1 4 3 -2 6 -13 5 -11 0 -14 -3 -6 -6z"/>
<path d="M3212 2321 c-9 -5 -4 -8 16 -7 17 1 28 4 25 9 -6 9 -25 9 -41 -2z"/>
<path d="M3173 2295 c0 -8 4 -12 9 -9 4 3 8 9 8 15 0 5 -4 9 -8 9 -5 0 -9 -7
-9 -15z"/>
<path d="M3141 2282 c-7 -14 -6 -18 9 -18 13 0 16 4 10 12 -6 6 -7 14 -3 17 3
4 3 7 0 7 -3 0 -11 -8 -16 -18z"/>
<path d="M3099 2243 c-13 -16 -12 -17 4 -4 16 13 21 21 13 21 -2 0 -10 -8 -17
-17z"/>
<path d="M4049 2198 c-5 -18 -6 -38 -1 -34 7 8 12 36 6 36 -2 0 -4 -1 -5 -2z"/>
<path d="M3335 2156 c-20 -20 -23 -29 -15 -55 5 -19 5 -31 -1 -31 -5 0 -9 5
-9 10 0 6 -51 10 -133 10 -116 0 -134 -2 -143 -18 -11 -17 -3 -18 139 -20 147
-1 152 -1 164 21 7 12 12 32 13 44 0 12 5 25 12 29 6 4 8 3 5 -2 -3 -5 7 -9
21 -8 86 7 87 7 37 14 -41 6 -33 7 45 7 61 1 86 -2 70 -7 -18 -6 -4 -8 48 -9
47 -1 71 3 67 9 -4 6 5 10 20 10 20 0 26 -4 21 -15 -4 -12 3 -15 33 -15 30 0
37 -4 36 -17 -4 -34 -16 -49 -42 -51 -14 -1 -31 -6 -37 -11 -6 -5 -42 -18 -81
-29 -74 -21 -139 -43 -219 -73 -26 -10 -52 -16 -57 -13 -5 3 -9 1 -9 -4 0 -5
-28 -17 -62 -27 -35 -10 -65 -19 -68 -20 -78 -27 -131 -58 -157 -92 -23 -30
-25 -42 -27 -145 -2 -131 0 -148 21 -118 11 15 14 46 12 123 -3 119 3 134 71
171 25 13 185 70 355 125 171 56 315 107 322 114 6 7 15 24 18 39 5 21 1 33
-19 52 l-25 26 -201 0 c-199 0 -201 0 -225 -24z m268 -3 c-7 -2 -19 -2 -25 0
-7 3 -2 5 12 5 14 0 19 -2 13 -5z m147 -3 c8 -5 11 -10 5 -10 -5 0 -17 5 -25
10 -8 5 -10 10 -5 10 6 0 17 -5 25 -10z m-577 -87 c-7 -2 -19 -2 -25 0 -7 3
-2 5 12 5 14 0 19 -2 13 -5z"/>
<path d="M4057 2147 c-3 -8 -1 -20 4 -28 6 -10 9 -7 9 14 0 29 -5 35 -13 14z"/>
<path d="M3770 2035 c-25 -14 -59 -27 -77 -31 -18 -3 -38 -13 -45 -22 -12 -13
-10 -14 10 -3 12 6 27 9 32 6 6 -3 10 -2 10 4 0 6 7 8 15 5 8 -4 15 -1 15 6 0
6 4 9 9 6 5 -3 20 4 35 15 14 11 30 18 34 15 5 -3 9 1 9 9 0 8 -1 15 -1 14 -1
0 -21 -11 -46 -24z"/>
<path d="M3588 1973 c-10 -2 -18 -9 -18 -14 0 -12 3 -12 36 6 28 14 19 18 -18
8z"/>
<path d="M3540 1950 c0 -5 -6 -7 -14 -4 -8 3 -16 1 -19 -4 -3 -4 11 -8 32 -8
31 0 36 2 25 13 -15 15 -24 17 -24 3z"/>
<path d="M3448 1928 c-21 -6 -38 -13 -38 -16 0 -4 -10 -8 -23 -8 -12 -1 -40
-9 -62 -19 -22 -10 -47 -19 -55 -20 -8 -1 -45 -11 -81 -23 -71 -24 -124 -63
-134 -101 -6 -21 -5 -22 8 -10 8 8 14 15 12 17 -1 2 9 16 23 32 21 24 29 27
41 17 12 -10 13 -9 7 2 -7 10 -3 12 15 6 19 -5 21 -4 9 4 -17 12 -16 12 22 15
15 2 34 9 43 16 8 7 23 13 33 14 30 3 101 26 106 35 3 4 21 7 40 6 19 0 34 4
33 9 -1 6 8 12 21 14 12 2 22 8 22 13 0 5 -1 9 -2 8 -2 -1 -20 -6 -40 -11z"/>
<path d="M3310 1850 c-9 -6 -10 -10 -3 -10 6 0 15 5 18 10 8 12 4 12 -15 0z"/>
<path d="M3286 1727 c3 -10 9 -15 12 -12 3 3 0 11 -7 18 -10 9 -11 8 -5 -6z"/>
<path d="M3320 1688 c0 -5 33 -8 73 -9 473 -4 677 -3 677 4 0 4 -62 8 -137 8
-491 4 -613 3 -613 -3z"/>
<path d="M3398 1653 c7 -3 16 -2 19 1 4 3 -2 6 -13 5 -11 0 -14 -3 -6 -6z"/>
<path d="M4058 1604 c-1 -31 0 -58 3 -60 3 -2 7 24 8 56 3 76 -6 79 -11 4z"/>
<path d="M3052 1570 c0 -14 2 -19 5 -12 2 6 2 18 0 25 -3 6 -5 1 -5 -13z"/>
<path d="M1906 1402 c-60 -2 -85 -8 -104 -22 -14 -11 -21 -20 -16 -20 5 0 10
-128 11 -286 0 -157 3 -288 6 -290 3 -3 13 -7 24 -9 10 -2 18 -4 18 -5 0 -1
24 -3 53 -4 31 -2 48 0 40 5 -19 13 24 11 57 -1 14 -5 24 -6 21 -1 -4 5 -1 11
4 13 6 2 13 37 16 78 3 41 7 80 9 87 9 27 134 -18 127 -46 -1 -6 2 -11 8 -11
5 0 23 -19 40 -42 16 -22 30 -37 30 -33 0 4 9 -3 19 -17 17 -21 26 -24 88 -22
37 1 85 -2 105 -6 29 -6 40 -4 53 9 8 10 15 21 15 25 0 9 -38 55 -107 129 -24
26 -40 47 -34 47 17 0 91 56 84 64 -3 3 2 15 12 26 22 24 31 171 12 204 -6 12
-10 25 -9 29 1 5 -2 6 -8 2 -5 -3 -10 0 -10 7 0 13 -8 22 -55 58 -14 11 -17
11 -11 1 5 -8 -2 -6 -19 5 -23 15 -54 19 -184 21 -86 2 -169 4 -186 6 -16 1
-66 1 -109 -1z m487 -56 c61 -30 81 -68 86 -159 2 -63 0 -82 -14 -97 -9 -10
-14 -24 -9 -31 4 -7 3 -10 -3 -6 -6 4 -19 -3 -29 -15 -13 -15 -14 -19 -4 -14
8 4 7 1 -3 -7 -10 -8 -26 -13 -35 -10 -22 5 -72 -13 -72 -27 0 -5 5 -10 11
-10 5 0 7 5 4 10 -3 6 -2 10 2 10 5 0 50 -45 102 -100 51 -55 88 -100 84 -100
-5 0 -13 4 -18 9 -6 5 -54 11 -107 13 -76 2 -94 0 -86 -9 7 -9 7 -13 -1 -13
-6 0 -12 5 -12 10 -1 6 -2 14 -3 19 0 5 -28 41 -61 79 -40 47 -62 67 -68 59
-5 -8 -7 -5 -5 8 3 18 -3 20 -74 23 l-77 3 5 -93 c3 -51 8 -96 10 -100 3 -5 0
-8 -5 -8 -6 0 -11 5 -11 10 0 6 -35 10 -85 10 -50 0 -85 -4 -85 -10 0 -5 -4
-10 -9 -10 -5 0 -7 19 -4 43 9 96 8 527 -2 532 -5 2 114 3 265 2 246 -2 279
-4 313 -21z m-445 -553 c-16 -2 -40 -2 -55 0 -16 2 -3 4 27 4 30 0 43 -2 28
-4z m470 0 c-10 -2 -28 -2 -40 0 -13 2 -5 4 17 4 22 1 32 -1 23 -4z m49 1 c-3
-3 -12 -4 -19 -1 -8 3 -5 6 6 6 11 1 17 -2 13 -5z"/>
<path d="M2005 1178 l0 -68 128 0 c122 0 129 1 152 25 29 29 32 55 8 84 -16
19 -30 21 -153 23 l-135 3 0 -67z m259 20 c-2 -3 0 -8 6 -10 6 -2 4 -12 -5
-26 -15 -20 -24 -22 -105 -22 -107 0 -120 4 -120 39 l0 26 114 0 c63 0 112 -3
110 -7z"/>
<path d="M2068 1083 c7 -3 16 -2 19 1 4 3 -2 6 -13 5 -11 0 -14 -3 -6 -6z"/>
<path d="M2138 1083 c7 -3 16 -2 19 1 4 3 -2 6 -13 5 -11 0 -14 -3 -6 -6z"/>
<path d="M2213 1083 c9 -2 23 -2 30 0 6 3 -1 5 -18 5 -16 0 -22 -2 -12 -5z"/>
<path d="M1980 887 l5 -72 3 64 c2 35 -1 68 -5 72 -4 4 -6 -24 -3 -64z"/>
<path d="M2345 931 c-3 -6 -2 -10 4 -9 6 2 33 -22 62 -52 28 -30 42 -41 31
-25 -32 48 -89 98 -97 86z"/>
<path d="M1841 884 c0 -11 3 -14 6 -6 3 7 2 16 -1 19 -3 4 -6 -2 -5 -13z"/>
<path d="M1841 834 c0 -11 3 -14 6 -6 3 7 2 16 -1 19 -3 4 -6 -2 -5 -13z"/>
<path d="M2547 1382 c-9 -9 -13 -23 -9 -29 4 -7 6 -29 5 -50 -7 -109 -1 -509
8 -518 5 -5 50 -11 99 -12 49 -1 95 -5 101 -9 7 -4 9 -3 6 3 -4 6 0 13 8 17
11 4 15 23 15 81 0 43 4 75 10 75 6 0 9 6 8 12 -2 7 6 14 17 16 13 2 31 -11
53 -38 19 -22 38 -37 43 -34 5 3 9 -2 9 -10 0 -9 5 -16 11 -16 5 0 8 -4 4 -9
-3 -5 4 -13 16 -16 11 -4 18 -9 15 -12 -7 -7 21 -34 53 -51 18 -9 60 -13 142
-11 63 1 120 -1 126 -4 7 -4 14 -3 18 3 3 5 43 8 95 6 100 -4 107 0 130 66
l13 36 141 1 c78 1 146 -2 151 -6 6 -5 19 -27 29 -50 10 -23 24 -44 30 -46 18
-6 214 0 225 8 18 10 13 29 -30 111 -23 44 -63 120 -89 169 -25 50 -54 103
-64 118 -10 15 -15 27 -11 27 3 0 -3 13 -14 29 -12 16 -21 34 -21 40 0 6 -5
11 -11 11 -6 0 -9 6 -6 14 3 8 -11 32 -32 55 l-38 41 -110 0 c-96 0 -112 -2
-131 -20 -27 -25 -54 -75 -45 -84 4 -3 2 -6 -3 -6 -6 0 -46 -69 -89 -154 -44
-85 -84 -152 -89 -149 -5 4 -6 1 -2 -5 4 -7 -10 -45 -31 -85 -36 -69 -39 -72
-56 -57 -9 9 -17 22 -17 28 0 6 -8 13 -17 16 -10 4 -31 22 -48 42 -57 67 -124
134 -134 134 -6 0 -11 4 -11 9 0 5 -7 17 -16 25 -17 17 -11 24 71 91 20 17 43
36 50 43 8 6 19 12 25 12 6 0 9 3 7 8 -6 8 19 33 26 26 2 -3 18 11 35 31 17
19 36 35 41 35 20 0 21 20 1 40 -18 18 -33 20 -134 20 l-114 0 -66 -60 c-37
-34 -72 -58 -78 -54 -6 4 -8 3 -5 -3 6 -9 -13 -30 -67 -72 -17 -14 -18 -12
-16 30 6 154 2 159 -124 159 -76 0 -96 -3 -109 -18z m206 -109 c-1 -54 -5
-110 -8 -126 -4 -23 16 -9 133 98 l137 125 122 0 c81 0 124 -4 129 -12 4 -6 3
-8 -4 -4 -20 12 -57 -12 -190 -124 l-133 -113 160 -160 c88 -89 158 -163 155
-166 -2 -3 -10 1 -16 7 -15 15 -212 17 -203 2 3 -5 1 -10 -5 -10 -6 0 -10 6
-8 13 2 8 -41 60 -94 116 l-97 103 -42 -32 -41 -33 4 -84 c1 -45 0 -83 -4 -83
-5 0 -8 5 -8 10 0 6 -33 10 -80 10 -47 0 -80 -4 -80 -10 0 -5 -4 -10 -10 -10
-6 0 -9 76 -8 213 2 194 3 201 8 87 6 -122 6 -121 8 66 1 137 -1 193 -10 202
-9 9 10 12 88 12 l100 0 -3 -97z m1211 -195 c115 -216 148 -286 135 -285 -10
1 -16 4 -13 8 2 4 -38 9 -90 11 -88 3 -115 -4 -56 -15 21 -4 20 -4 -7 -6 -20
0 -33 4 -34 12 -1 6 -2 17 -4 22 -1 6 -3 16 -3 23 -1 7 -7 10 -14 6 -6 -4 -8
-3 -4 4 3 6 1 21 -4 34 -11 23 -12 23 -177 21 l-165 -2 -23 -48 c-12 -26 -20
-54 -18 -60 3 -7 0 -13 -6 -13 -6 0 -11 5 -11 10 0 6 -35 10 -86 10 -47 0 -83
-4 -80 -8 2 -4 -4 -8 -14 -9 -16 -1 -14 6 14 55 18 31 77 143 131 247 54 105
109 206 121 226 13 20 20 40 16 43 -3 4 49 5 117 4 l122 -3 153 -287z m-1397
165 c-3 -10 -5 -4 -5 12 0 17 2 24 5 18 2 -7 2 -21 0 -30z m136 -450 c-7 -2
-19 -2 -25 0 -7 3 -2 5 12 5 14 0 19 -2 13 -5z m425 0 c-16 -2 -40 -2 -55 0
-16 2 -3 4 27 4 30 0 43 -2 28 -4z m80 0 c-10 -2 -26 -2 -35 0 -10 3 -2 5 17
5 19 0 27 -2 18 -5z m220 0 c-21 -2 -55 -2 -75 0 -21 2 -4 4 37 4 41 0 58 -2
38 -4z m625 0 c-13 -2 -35 -2 -50 0 -16 2 -5 4 22 4 28 0 40 -2 28 -4z"/>
<path d="M3025 1340 c-3 -5 -1 -10 4 -10 6 0 11 5 11 10 0 6 -2 10 -4 10 -3 0
-8 -4 -11 -10z"/>
<path d="M2966 1292 c-3 -5 1 -9 9 -9 8 0 12 4 9 9 -3 4 -7 8 -9 8 -2 0 -6 -4
-9 -8z"/>
<path d="M2864 1204 c-19 -15 -19 -15 1 -6 14 8 23 6 33 -6 11 -15 12 -14 2 6
-13 26 -11 26 -36 6z"/>
<path d="M2956 1168 c3 -5 10 -6 15 -3 13 9 11 12 -6 12 -8 0 -12 -4 -9 -9z"/>
<path d="M2698 1113 c6 -2 18 -2 25 0 6 3 1 5 -13 5 -14 0 -19 -2 -12 -5z"/>
<path d="M2945 1081 c11 -13 19 -25 18 -27 -2 -2 0 -5 5 -5 4 -1 17 -13 30
-28 36 -42 37 -42 121 -126 44 -43 83 -77 85 -74 3 3 -58 68 -136 144 -78 77
-133 129 -123 116z"/>
<path d="M2765 1010 c-3 -6 1 -7 9 -4 18 7 21 14 7 14 -6 0 -13 -4 -16 -10z"/>
<path d="M3825 1270 c3 -5 8 -10 11 -10 2 0 4 5 4 10 0 6 -5 10 -11 10 -5 0
-7 -4 -4 -10z"/>
<path d="M3644 1149 c-27 -56 -50 -105 -51 -108 -2 -3 44 -6 101 -6 l104 0
-35 70 c-20 39 -38 72 -42 75 -3 3 -8 14 -9 25 -9 51 -20 42 -68 -56z m65 -2
c6 -8 12 -22 14 -33 1 -10 6 -24 10 -30 7 -12 -67 -29 -82 -20 -9 6 30 96 40
96 4 0 12 -6 18 -13z"/>
<path d="M3890 1161 c0 -6 4 -13 10 -16 6 -3 7 1 4 9 -7 18 -14 21 -14 7z"/>
<path d="M3501 1124 c0 -11 3 -14 6 -6 3 7 2 16 -1 19 -3 4 -6 -2 -5 -13z"/>
<path d="M3913 1111 c0 -11 5 -18 9 -15 4 3 5 11 1 19 -7 21 -12 19 -10 -4z"/>
<path d="M3850 1110 c0 -5 5 -10 11 -10 5 0 7 5 4 10 -3 6 -8 10 -11 10 -2 0
-4 -4 -4 -10z"/>
<path d="M3940 1049 c0 -11 4 -18 8 -15 12 7 54 -83 46 -96 -4 -7 -2 -8 4 -4
16 10 15 -6 0 -24 -11 -12 -10 -12 3 -2 9 6 19 9 22 5 4 -3 7 -4 7 0 0 8 -81
157 -86 157 -2 0 -4 -9 -4 -21z"/>
<path d="M3579 1017 c4 -4 55 -6 112 -5 l104 3 -112 5 c-62 3 -109 1 -104 -3z"/>
<path d="M3401 977 c-13 -21 -12 -21 5 -5 10 10 16 20 13 22 -3 3 -11 -5 -18
-17z"/>
<path d="M3351 892 c-7 -13 -6 -19 2 -19 7 0 13 9 13 19 0 10 -1 18 -3 18 -1
0 -7 -8 -12 -18z"/>
<path d="M4030 886 c0 -8 7 -22 16 -30 8 -9 13 -20 10 -24 -3 -5 1 -9 9 -9 11
0 9 9 -6 39 -21 40 -29 47 -29 24z"/>
<path d="M3322 840 c-8 -13 -8 -20 -2 -20 6 0 13 7 17 15 9 24 -1 27 -15 5z"/>
<path d="M4350 1390 c-61 -15 -123 -57 -126 -84 0 -6 -6 -24 -12 -39 -15 -35
-15 -72 -1 -95 9 -15 24 -17 105 -14 90 3 96 5 106 28 6 13 16 24 22 25 17 1
189 1 204 0 15 -1 11 -25 -4 -27 -5 0 -22 -6 -37 -12 -16 -7 -30 -12 -32 -12
-2 0 -16 -5 -32 -12 -36 -14 -54 -19 -75 -21 -10 -1 -18 -4 -18 -8 0 -8 -57
-23 -64 -17 -2 2 -13 -5 -24 -15 -11 -10 -23 -17 -28 -16 -17 4 -66 -21 -85
-44 -36 -41 -46 -72 -48 -142 -2 -119 -31 -110 345 -109 266 1 328 4 335 15 5
8 9 42 9 76 0 87 -7 90 -184 91 -139 1 -176 7 -117 18 17 4 34 11 37 15 3 5
14 9 24 9 10 0 25 6 32 13 7 6 25 13 41 14 45 3 118 45 143 83 27 39 33 129
13 185 -14 36 -69 78 -124 94 -46 13 -352 13 -405 1z m440 -42 c75 -39 104
-137 60 -210 -26 -45 -52 -58 -214 -113 -77 -26 -162 -57 -190 -70 l-51 -23
238 -1 237 -1 -1 -72 c0 -40 -3 -67 -6 -60 -6 15 -613 18 -629 2 -7 -7 -9 20
-6 82 3 89 5 94 36 124 24 23 75 45 211 92 99 34 187 66 195 70 20 12 25 62 8
73 -19 13 -236 11 -260 -2 -16 -9 -19 -17 -14 -42 5 -25 4 -29 -6 -19 -17 17
-164 16 -172 0 -3 -7 -3 5 0 27 21 148 52 164 329 165 179 0 194 -1 235 -22z
m-437 -555 c-7 -2 -21 -2 -30 0 -10 3 -4 5 12 5 17 0 24 -2 18 -5z m280 0 c-7
-2 -19 -2 -25 0 -7 3 -2 5 12 5 14 0 19 -2 13 -5z m60 0 c-7 -2 -19 -2 -25 0
-7 3 -2 5 12 5 14 0 19 -2 13 -5z"/>
<path d="M4314 1331 c-35 -21 -59 -49 -50 -58 3 -3 6 -1 6 6 0 7 5 9 12 5 7
-5 8 -3 4 5 -5 8 0 14 13 18 12 3 21 9 21 14 0 5 6 6 14 3 8 -3 17 -1 20 4 3
6 59 11 123 11 64 1 119 4 122 6 2 3 -54 5 -126 4 -106 0 -136 -4 -159 -18z"/>
<path d="M4725 1339 c7 -11 35 -12 35 -1 0 4 -9 8 -20 9 -11 1 -18 -2 -15 -8z"/>
<path d="M4260 1225 c0 -8 4 -15 10 -15 5 0 7 7 4 15 -4 8 -8 15 -10 15 -2 0
-4 -7 -4 -15z"/>
<path d="M4683 1158 c-13 -6 -23 -14 -23 -19 0 -12 38 2 44 17 3 8 4 14 3 13
-1 0 -12 -5 -24 -11z"/>
<path d="M4630 1129 c0 -5 -4 -8 -8 -5 -5 3 -71 -17 -148 -43 -188 -66 -190
-67 -208 -93 -25 -36 -19 -46 9 -13 13 17 24 26 25 21 0 -6 7 -1 15 10 8 10
15 14 15 8 0 -6 7 -11 14 -11 8 0 14 4 13 9 -2 8 102 56 135 61 10 2 21 6 24
10 4 4 16 7 26 7 10 0 30 7 43 16 13 9 28 13 33 10 6 -3 15 1 22 9 9 10 9 15
1 15 -6 0 -11 -5 -11 -11z"/>
<path d="M4466 988 c3 -4 11 -5 19 -1 21 7 19 12 -4 10 -11 0 -18 -5 -15 -9z"/>
<path d="M4360 946 c0 -2 8 -10 18 -17 15 -13 16 -12 3 4 -13 16 -21 21 -21
13z"/>
<path d="M4383 904 c3 -3 107 -6 231 -6 l225 -1 4 -41 4 -41 1 48 2 47 -237 0
c-130 0 -234 -3 -230 -6z"/>
<path d="M183 1344 c7 -8 97 -7 105 1 3 3 -21 5 -53 5 -32 0 -56 -3 -52 -6z"/>
<path d="M352 1336 c50 -51 76 -85 70 -92 -4 -4 -1 -4 6 0 8 5 0 22 -30 57
-24 27 -47 49 -51 49 -5 0 -2 -6 5 -14z"/>
<path d="M898 1343 c6 -2 18 -2 25 0 6 3 1 5 -13 5 -14 0 -19 -2 -12 -5z"/>
<path d="M775 1289 c-4 -6 -5 -12 -2 -15 2 -3 7 2 10 11 7 17 1 20 -8 4z"/>
<path d="M440 1234 c1 -16 28 -45 34 -36 3 5 -3 17 -14 27 -11 10 -20 14 -20
9z"/>
<path d="M172 1205 c0 -16 2 -22 5 -12 2 9 2 23 0 30 -3 6 -5 -1 -5 -18z"/>
<path d="M487 1170 c3 -10 10 -18 17 -17 6 1 10 -4 9 -10 -2 -7 2 -13 8 -13 5
0 8 -4 4 -9 -3 -5 8 -19 25 -31 16 -12 29 -26 27 -32 -1 -6 6 -12 15 -13 10
-2 -6 25 -43 71 -33 41 -62 74 -64 74 -2 0 -1 -9 2 -20z"/>
<path d="M170 980 c0 -145 2 -161 15 -150 9 7 12 16 7 19 -5 3 -10 69 -11 145
-1 77 -3 142 -6 144 -3 3 -5 -68 -5 -158z"/>
<path d="M396 1132 c-3 -5 1 -9 9 -9 8 0 12 4 9 9 -3 4 -7 8 -9 8 -2 0 -6 -4
-9 -8z"/>
<path d="M645 1131 c-3 -5 -2 -12 3 -15 5 -3 9 1 9 9 0 17 -3 19 -12 6z"/>
<path d="M446 1081 c-4 -5 -2 -12 3 -15 5 -4 12 -2 15 3 4 5 2 12 -3 15 -5 4
-12 2 -15 -3z"/>
<path d="M308 944 c-2 -47 0 -93 4 -102 4 -9 7 29 7 86 1 56 -1 102 -3 102 -3
0 -6 -39 -8 -86z"/>
<path d="M485 970 c10 -11 20 -20 23 -20 3 0 -3 9 -13 20 -10 11 -20 20 -23
20 -3 0 3 -9 13 -20z"/>
<path d="M977 868 c-2 -7 -1 -22 4 -33 6 -16 8 -14 8 13 1 33 -4 41 -12 20z"/>
<path d="M3874 3090 c0 -69 1 -97 3 -62 2 34 2 90 0 125 -2 34 -3 6 -3 -63z"/>
<path d="M4168 2788 c-2 -62 0 -120 4 -128 4 -8 8 42 8 113 0 70 -2 127 -4
127 -3 0 -6 -51 -8 -112z"/>
<path d="M4841 2584 c0 -11 3 -14 6 -6 3 7 2 16 -1 19 -3 4 -6 -2 -5 -13z"/>
<path d="M4869 2490 c0 -3 -3 -75 -6 -161 -3 -118 -1 -159 8 -164 8 -5 10 -4
5 3 -4 7 -2 12 3 12 14 0 15 279 1 300 -5 8 -10 13 -11 10z"/>
<path d="M4794 2370 c0 -52 1 -74 3 -47 2 26 2 68 0 95 -2 26 -3 4 -3 -48z"/>
<path d="M4842 2380 c0 -14 2 -19 5 -12 2 6 2 18 0 25 -3 6 -5 1 -5 -13z"/>
<path d="M4040 2366 c0 -2 8 -10 18 -17 15 -13 16 -12 3 4 -13 16 -21 21 -21
13z"/>
<path d="M4155 2250 c3 -5 8 -10 11 -10 2 0 4 5 4 10 0 6 -5 10 -11 10 -5 0
-7 -4 -4 -10z"/>
<path d="M4240 2210 c0 -5 7 -10 16 -10 9 0 12 -5 8 -12 -4 -7 -3 -8 4 -4 16
10 15 14 -8 26 -14 7 -20 7 -20 0z"/>
<path d="M4296 2162 c-2 -4 4 -8 14 -8 10 0 16 4 14 8 -3 4 -9 8 -14 8 -5 0
-11 -4 -14 -8z"/>
<path d="M4868 2077 c-2 -6 -4 -69 -3 -139 0 -95 -3 -124 -12 -117 -7 7 -14 6
-18 -1 -3 -5 -3 -10 1 -10 3 0 0 -8 -7 -17 -7 -10 -10 -15 -5 -11 7 6 35 -13
82 -58 28 -26 57 -39 51 -22 -2 7 -10 12 -17 10 -10 -2 -11 0 -2 11 9 11 5 18
-18 36 l-30 22 0 149 c0 82 -4 151 -9 154 -5 3 -11 0 -13 -7z m29 -312 c25
-19 43 -35 40 -35 -8 0 -97 60 -97 66 0 9 14 2 57 -31z"/>
<path d="M4792 2060 c0 -14 2 -19 5 -12 2 6 2 18 0 25 -3 6 -5 1 -5 -13z"/>
<path d="M4550 1996 c0 -2 8 -10 18 -17 15 -13 16 -12 3 4 -13 16 -21 21 -21
13z"/>
<path d="M4841 1964 c0 -11 3 -14 6 -6 3 7 2 16 -1 19 -3 4 -6 -2 -5 -13z"/>
<path d="M4620 1942 c0 -4 9 -13 20 -20 11 -6 18 -17 16 -24 -1 -7 -1 -9 2 -5
2 4 10 0 16 -9 11 -15 14 -15 19 -2 3 10 -8 24 -34 41 -21 14 -39 23 -39 19z"/>
<path d="M4791 1934 c0 -11 3 -14 6 -6 3 7 2 16 -1 19 -3 4 -6 -2 -5 -13z"/>
<path d="M4843 1890 c0 -30 2 -43 4 -27 2 15 2 39 0 55 -2 15 -4 2 -4 -28z"/>
<path d="M4784 1819 c-4 -7 -3 -9 4 -5 5 3 12 0 15 -6 2 -7 7 -10 11 -7 4 3 0
12 -8 18 -11 9 -16 9 -22 0z"/>
<path d="M4993 1673 c18 -20 18 -22 0 -32 -10 -6 -13 -11 -7 -11 6 0 17 6 23
13 8 11 6 18 -12 33 l-22 19 18 -22z"/>
<path d="M4572 2090 c0 -14 2 -19 5 -12 2 6 2 18 0 25 -3 6 -5 1 -5 -13z"/>
<path d="M4866 2651 c-3 -5 2 -8 12 -7 9 0 16 -5 14 -12 -1 -8 2 -11 8 -7 8 5
7 11 -1 21 -13 16 -25 18 -33 5z"/>
<path d="M4925 2611 c-3 -5 -1 -12 5 -16 5 -3 10 -3 10 1 0 3 8 0 18 -7 14
-11 13 -10 -2 9 -22 25 -23 25 -31 13z"/>
<path d="M5010 2540 c8 -5 20 -10 25 -10 6 0 3 5 -5 10 -8 5 -19 10 -25 10 -5
0 -3 -5 5 -10z"/>
<path d="M5280 2362 c6 -12 15 -20 20 -17 5 3 13 -3 19 -12 6 -10 11 -13 11
-7 0 6 -7 17 -15 24 -8 7 -15 9 -15 4 0 -4 -7 1 -16 12 -14 18 -15 18 -4 -4z"/>
<path d="M5360 2311 c0 -7 -5 -9 -12 -5 -7 5 -8 3 -3 -5 5 -9 10 -10 18 -2 6
6 8 14 4 18 -4 3 -7 1 -7 -6z"/>
<path d="M5414 2262 c11 -12 21 -20 24 -17 3 3 12 -1 21 -7 10 -8 9 -4 -3 10
-11 12 -21 20 -24 17 -3 -3 -12 1 -21 7 -10 8 -9 4 3 -10z"/>
<path d="M5575 2150 c-7 -11 22 -26 32 -16 4 3 -1 6 -11 6 -9 0 -14 5 -11 10
3 6 4 10 1 10 -3 0 -8 -5 -11 -10z"/>
<path d="M5592 1960 c0 -14 2 -19 5 -12 2 6 2 18 0 25 -3 6 -5 1 -5 -13z"/>
<path d="M5593 1790 c0 -30 2 -43 4 -27 2 15 2 39 0 55 -2 15 -4 2 -4 -28z"/>
<path d="M5591 1714 c0 -11 3 -14 6 -6 3 7 2 16 -1 19 -3 4 -6 -2 -5 -13z"/>
<path d="M5591 1674 c0 -11 3 -14 6 -6 3 7 2 16 -1 19 -3 4 -6 -2 -5 -13z"/>
<path d="M1775 1975 c61 -53 87 -63 30 -11 -27 25 -54 46 -60 46 -5 0 8 -16
30 -35z"/>
<path d="M2409 1878 c-73 -68 -157 -145 -186 -172 l-53 -48 -118 99 c-115 98
-142 118 -142 110 0 -8 251 -212 260 -212 9 0 346 301 371 331 31 37 -11 3
-132 -108z"/>
<path d="M2165 1900 c-3 -5 -1 -10 4 -10 6 0 11 5 11 10 0 6 -2 10 -4 10 -3 0
-8 -4 -11 -10z"/>
<path d="M2143 1735 c0 -8 4 -12 9 -9 5 3 6 10 3 15 -9 13 -12 11 -12 -6z"/>
<path d="M5076 2318 c-3 -13 -6 -34 -6 -47 0 -20 2 -21 15 -11 16 13 21 80 6
80 -5 0 -11 -10 -15 -22z m11 -30 c-3 -8 -6 -5 -6 6 -1 11 2 17 5 13 3 -3 4
-12 1 -19z"/>
<path d="M5066 2137 c3 -10 9 -15 12 -12 3 3 0 11 -7 18 -10 9 -11 8 -5 -6z"/>
<path d="M5072 1905 c0 -16 2 -22 5 -12 2 9 2 23 0 30 -3 6 -5 -1 -5 -18z"/>
<path d="M5071 1854 c0 -11 3 -14 6 -6 3 7 2 16 -1 19 -3 4 -6 -2 -5 -13z"/>
<path d="M5001 1883 c0 -35 2 -63 7 -63 4 0 6 21 4 48 -5 75 -10 82 -11 15z"/>
<path d="M5175 2240 c-3 -6 1 -7 9 -4 18 7 21 14 7 14 -6 0 -13 -4 -16 -10z"/>
<path d="M4280 2076 c0 -2 7 -9 15 -16 13 -11 14 -10 9 4 -5 14 -24 23 -24 12z"/>
<path d="M4093 1885 c0 -22 2 -30 4 -17 2 12 2 30 0 40 -3 9 -5 -1 -4 -23z"/>
<path d="M5520 1795 c0 -27 2 -46 5 -43 8 8 9 77 2 85 -4 3 -7 -15 -7 -42z"/>
<path d="M1388 1123 c50 -2 134 -2 185 0 50 1 9 3 -93 3 -102 0 -143 -2 -92
-3z"/>
<path d="M1313 903 c9 -2 25 -2 35 0 9 3 1 5 -18 5 -19 0 -27 -2 -17 -5z"/>
<path d="M1378 903 c7 -3 16 -2 19 1 4 3 -2 6 -13 5 -11 0 -14 -3 -6 -6z"/>
<path d="M1463 903 c32 -2 81 -2 110 0 29 2 3 3 -58 3 -60 0 -84 -1 -52 -3z"/>
<path d="M1653 903 c9 -2 23 -2 30 0 6 3 -1 5 -18 5 -16 0 -22 -2 -12 -5z"/>
<path d="M5408 1343 c6 -2 18 -2 25 0 6 3 1 5 -13 5 -14 0 -19 -2 -12 -5z"/>
<path d="M5580 1311 c0 -5 7 -12 16 -15 14 -5 15 -4 4 9 -14 17 -20 19 -20 6z"/>
<path d="M5208 1133 c17 -2 47 -2 65 0 17 2 3 4 -33 4 -36 0 -50 -2 -32 -4z"/>
<path d="M5360 1124 c38 -8 90 -9 90 -2 0 4 -24 7 -52 7 -29 -1 -46 -3 -38 -5z"/>
<path d="M5510 1116 c0 -2 9 -6 20 -9 11 -3 18 -1 14 4 -5 9 -34 13 -34 5z"/>
<path d="M5566 1099 c3 -5 11 -9 18 -9 19 0 36 -23 38 -53 2 -25 18 -28 18 -3
0 20 -37 63 -60 69 -11 3 -18 1 -14 -4z"/>
<path d="M5638 970 c2 -16 6 -30 8 -30 2 0 4 14 4 30 0 17 -4 30 -8 30 -5 0
-7 -13 -4 -30z"/>
<path d="M4996 950 c6 -6 21 -6 39 -1 30 9 30 9 -9 10 -26 1 -37 -2 -30 -9z"/>
<path d="M5085 950 c-8 -13 5 -13 25 0 13 8 13 10 -2 10 -9 0 -20 -4 -23 -10z"/>
<path d="M5120 933 c0 -18 34 -33 72 -32 30 1 29 2 -10 9 -24 3 -48 13 -53 21
-6 9 -9 10 -9 2z"/>
<path d="M5481 920 c-9 -5 -4 -7 13 -7 29 0 32 2 13 10 -8 3 -20 2 -26 -3z"/>
<path d="M5260 904 c82 -8 200 -8 200 -1 0 4 -53 6 -117 5 -65 -1 -102 -3 -83
-4z"/>
<path d="M5333 1795 c0 -22 2 -30 4 -17 2 12 2 30 0 40 -3 9 -5 -1 -4 -23z"/>
<path d="M4125 1730 c3 -5 8 -10 11 -10 2 0 4 5 4 10 0 6 -5 10 -11 10 -5 0
-7 -4 -4 -10z"/>
<path d="M4190 1717 c19 -8 41 -12 48 -9 7 2 18 0 25 -5 12 -9 126 -18 117 -9
-3 2 -28 7 -55 9 -28 3 -57 7 -65 10 -8 3 -22 6 -30 6 -8 0 -28 3 -45 6 -28 5
-28 4 5 -8z"/>
<path d="M4420 1681 c19 -4 46 -11 60 -15 18 -6 22 -5 15 3 -6 6 -33 13 -60
16 -41 3 -43 3 -15 -4z"/>
<path d="M4517 1663 c-3 -4 20 -9 51 -11 31 -1 61 -7 68 -13 8 -7 19 -7 30 -1
13 7 6 11 -32 16 -27 4 -63 9 -80 12 -18 3 -34 2 -37 -3z"/>
<path d="M4690 1636 c0 -2 14 -6 30 -8 17 -3 30 -1 30 4 0 4 -13 8 -30 8 -16
0 -30 -2 -30 -4z"/>
<path d="M4773 1623 c9 -2 23 -2 30 0 6 3 -1 5 -18 5 -16 0 -22 -2 -12 -5z"/>
<path d="M4820 1616 c0 -2 11 -6 25 -8 13 -3 22 -1 19 3 -5 9 -44 13 -44 5z"/>
<path d="M4978 1593 c7 -3 16 -2 19 1 4 3 -2 6 -13 5 -11 0 -14 -3 -6 -6z"/>
<path d="M5010 1580 c-8 -5 -10 -10 -5 -10 6 0 17 5 25 10 8 5 11 10 5 10 -5
0 -17 -5 -25 -10z"/>
<path d="M5057 1575 c2 -7 15 -10 29 -7 31 6 30 9 -5 14 -19 3 -27 0 -24 -7z"/>
<path d="M5225 1540 c3 -5 8 -10 11 -10 2 0 4 5 4 10 0 6 -5 10 -11 10 -5 0
-7 -4 -4 -10z"/>
<path d="M5328 1523 c7 -3 16 -2 19 1 4 3 -2 6 -13 5 -11 0 -14 -3 -6 -6z"/>
<path d="M5378 1523 c-18 -4 -25 -23 -10 -23 4 -1 32 -3 62 -5 37 -3 48 -1 35
5 -14 6 -15 9 -5 10 10 1 9 4 -5 10 -22 9 -50 10 -77 3z"/>
<path d="M5645 1459 c-19 -9 -18 -9 3 -5 12 2 22 0 22 -4 0 -4 16 -8 35 -7 20
1 30 4 23 8 -26 13 -64 17 -83 8z"/>
<path d="M1130 648 c0 -6 -3 -8 -7 -5 -3 4 -15 0 -25 -10 -26 -23 -26 -133 1
-157 53 -48 171 -24 171 35 0 26 -41 25 -58 -1 -7 -11 -17 -20 -23 -20 -5 0
-8 4 -5 8 3 5 -1 9 -9 9 -8 0 -12 -4 -9 -9 3 -4 -2 -8 -11 -8 -9 0 -13 5 -10
10 4 6 1 9 -6 8 -9 -2 -12 10 -10 42 2 25 5 48 8 52 2 5 22 8 44 8 28 0 39 -4
39 -15 0 -9 9 -15 25 -15 20 0 25 5 25 26 0 17 -6 28 -20 31 -11 3 -20 9 -20
13 0 4 -22 8 -50 9 -32 0 -50 -4 -50 -11z m101 -28 c13 -10 19 -19 12 -20 -6
0 -15 5 -18 11 -4 6 -17 14 -29 19 -15 6 -16 9 -5 9 9 1 27 -8 40 -19z m-103
-10 c-7 -10 -14 -18 -15 -16 -6 6 9 36 18 36 5 0 4 -9 -3 -20z m-31 -52 c-3
-8 -6 -5 -6 6 -1 11 2 17 5 13 3 -3 4 -12 1 -19z m106 -85 c-13 -2 -35 -2 -50
0 -16 2 -5 4 22 4 28 0 40 -2 28 -4z"/>
<path d="M1467 647 c3 -5 -3 -7 -13 -5 -13 2 -19 -3 -18 -14 1 -10 -2 -15 -7
-12 -5 3 -9 -24 -9 -60 0 -59 3 -67 28 -86 37 -30 126 -24 154 10 21 25 27
137 7 124 -8 -4 -9 1 -4 17 5 19 4 21 -4 9 -10 -13 -15 -8 -12 12 0 4 -7 4
-16 1 -10 -4 -14 -2 -10 4 4 7 -12 10 -47 9 -30 0 -52 -5 -49 -9z m101 -23
c12 -8 22 -20 22 -26 0 -7 -6 -5 -12 4 -7 8 -22 20 -33 26 -11 6 -15 12 -10
12 6 0 21 -7 33 -16z m-100 -14 c-7 -10 -14 -18 -15 -16 -6 6 9 36 18 36 5 0
4 -9 -3 -20z m96 -16 c10 -26 6 -68 -8 -86 -14 -19 -61 -24 -71 -8 -4 6 -10 8
-15 5 -7 -5 -4 63 6 93 5 18 80 16 88 -4z m20 -109 c-20 -15 -101 -20 -122 -7
-7 5 14 6 47 4 36 -3 61 0 65 7 4 6 12 11 19 11 6 0 2 -7 -9 -15z"/>
<path d="M1772 558 c3 -95 4 -103 23 -103 16 0 21 8 23 44 2 24 -2 57 -9 73
-21 50 3 53 40 6 l32 -43 -35 39 c-55 60 -43 28 20 -53 43 -55 61 -71 77 -69
20 3 22 10 25 106 l4 103 -27 -3 c-27 -3 -27 -5 -27 -65 1 -88 4 -90 12 -8 l6
70 2 -70 c2 -59 -1 -72 -17 -82 -16 -10 -20 -9 -25 3 -4 9 -2 12 5 8 7 -4 10
-3 7 2 -2 5 -12 26 -22 48 -30 67 -57 96 -88 96 l-29 0 3 -102z m163 -86 c-8
-8 -25 10 -19 20 4 6 9 5 15 -3 4 -7 6 -15 4 -17z"/>
<path d="M2139 644 c-5 -6 -6 -14 -2 -17 3 -4 1 -7 -5 -7 -17 0 -15 -55 2 -69
7 -6 35 -14 62 -18 27 -3 53 -11 59 -17 17 -18 12 -41 -10 -43 l-20 -3 20 9
c19 9 18 10 -5 11 -14 2 -31 1 -39 0 -8 -1 -17 4 -21 10 -9 14 -70 24 -70 11
0 -5 9 -19 19 -32 16 -20 28 -24 79 -24 70 0 92 14 92 60 0 40 -34 59 -99 56
-37 -2 -43 0 -37 14 3 9 6 19 6 21 0 2 18 4 40 4 22 0 40 -4 40 -10 0 -5 11
-10 25 -10 16 0 25 6 25 16 0 8 -4 12 -10 9 -6 -3 -7 1 -4 9 4 11 0 16 -10 16
-9 0 -16 4 -16 9 0 12 -110 8 -121 -5z m24 -35 c-7 -25 -10 -24 -15 5 -3 16
-1 23 7 19 7 -2 11 -13 8 -24z m102 11 c3 -6 -1 -7 -9 -4 -18 7 -21 14 -7 14
6 0 13 -4 16 -10z m-75 -61 c14 0 19 -3 12 -6 -19 -7 -62 6 -62 19 0 9 3 9 12
0 7 -7 23 -12 38 -13z m29 -85 c10 -9 -55 -3 -69 6 -10 6 -2 7 25 3 22 -3 42
-7 44 -9z"/>
<path d="M2440 635 c0 -21 5 -25 30 -25 l29 0 3 -77 c3 -70 5 -78 23 -78 18 0
20 8 23 78 l3 77 29 0 c25 0 30 4 30 25 0 25 -1 25 -85 25 -84 0 -85 0 -85
-25z m85 5 c-3 -6 -1 -10 4 -10 6 0 11 -10 11 -22 0 -17 -3 -20 -9 -9 -7 11
-10 10 -14 -5 -3 -12 -5 -7 -6 13 -1 24 -5 31 -16 27 -8 -4 -15 -2 -15 3 0 5
11 10 26 11 14 1 23 -2 19 -8z m45 0 c8 -5 11 -10 5 -10 -5 0 -17 5 -25 10 -8
5 -10 10 -5 10 6 0 17 -5 25 -10z"/>
<path d="M2760 554 c0 -104 0 -105 23 -102 17 2 23 11 25 36 4 43 32 43 65 -2
18 -23 33 -33 49 -31 31 3 31 3 16 20 -34 41 -52 55 -59 44 -4 -7 -8 -5 -12 5
-4 9 -3 15 1 15 4 -1 14 -1 22 0 12 1 12 3 2 10 -10 6 -10 10 3 21 13 11 14
10 9 -5 -6 -14 -4 -16 7 -10 12 8 12 6 0 -8 -18 -23 -8 -32 13 -12 10 11 16
33 16 63 0 26 -4 42 -8 35 -6 -9 -12 -7 -22 7 -12 17 -26 20 -82 20 l-68 0 0
-106z m68 83 c-41 -16 -34 -27 17 -27 37 0 45 -3 45 -19 0 -24 -26 -47 -33
-29 -4 11 -8 11 -26 0 -27 -16 -41 -8 -41 24 0 13 -4 24 -10 24 -5 0 -10 5
-10 12 0 6 3 8 6 5 4 -3 16 0 28 8 11 8 27 15 36 14 8 -1 3 -6 -12 -12z m82
-24 c0 -10 -4 -14 -8 -8 -4 6 -11 13 -16 18 -5 4 -2 7 7 7 10 0 17 -8 17 -17z
m-111 -92 c-1 -13 -2 -13 -6 2 -2 9 -8 15 -12 13 -4 -3 -8 1 -8 9 0 11 4 12
14 4 7 -6 12 -19 12 -28z"/>
<path d="M2802 580 c0 -14 2 -19 5 -12 2 6 2 18 0 25 -3 6 -5 1 -5 -13z"/>
<path d="M3100 571 c0 -90 0 -91 30 -106 34 -18 68 -19 107 -4 39 15 43 24 43
117 0 82 0 82 -26 82 l-26 0 4 -79 c2 -44 0 -77 -4 -74 -5 2 -8 -1 -8 -6 0
-17 -66 -13 -80 4 -9 11 -9 15 -1 15 8 0 11 21 9 68 -3 61 -5 67 -25 70 -22 3
-23 1 -23 -87z m17 27 c-3 -7 -5 -2 -5 12 0 14 2 19 5 13 2 -7 2 -19 0 -25z
m42 -127 c-6 -2 -18 4 -27 13 -15 15 -15 15 10 4 15 -7 23 -15 17 -17z m64 2
c-7 -2 -19 -2 -25 0 -7 3 -2 5 12 5 14 0 19 -2 13 -5z"/>
<path d="M3480 646 c0 -5 -3 -6 -7 -3 -3 4 -12 2 -20 -4 -9 -8 -13 -36 -13
-84 0 -90 10 -100 92 -100 51 0 63 4 79 24 23 29 20 45 -9 49 -20 3 -27 -7
-23 -30 1 -10 -71 -10 -84 0 -10 7 -15 31 -18 96 -1 17 4 30 11 32 7 1 8 0 2
-3 -5 -2 -10 -12 -10 -21 0 -12 3 -13 12 -4 17 17 75 15 82 -3 6 -18 42 -20
52 -3 4 6 -4 21 -19 34 -14 12 -23 24 -20 27 3 3 -20 5 -51 4 -31 -1 -56 -6
-56 -11z m118 -34 c6 -18 -15 -14 -22 4 -4 10 -1 14 6 12 6 -2 14 -10 16 -16z
m-65 -134 l52 -2 -49 -3 c-48 -4 -86 14 -86 41 0 6 7 0 16 -12 12 -17 26 -22
67 -24z"/>
<path d="M3760 635 c0 -22 4 -25 35 -25 l35 0 0 -81 c0 -77 1 -80 22 -77 20 3
21 8 19 73 -3 70 -7 88 -19 82 -4 -2 -17 7 -29 20 -16 17 -18 23 -8 23 8 0 15
-4 15 -10 0 -5 9 -10 20 -10 11 0 20 -4 20 -10 0 -5 16 -10 35 -10 31 0 35 3
35 25 0 25 -1 25 -90 25 -89 0 -90 0 -90 -25z m87 -92 c-3 -10 -5 -4 -5 12 0
17 2 24 5 18 2 -7 2 -21 0 -30z"/>
<path d="M4089 656 c-2 -2 -3 -50 -1 -105 3 -89 5 -101 21 -101 16 0 19 12 24
86 6 99 1 124 -22 124 -10 0 -20 -2 -22 -4z m18 -58 c-3 -8 -6 -5 -6 6 -1 11
2 17 5 13 3 -3 4 -12 1 -19z"/>
<path d="M4347 646 c4 -5 -1 -7 -10 -3 -35 13 -59 -70 -41 -141 13 -47 105
-68 164 -37 17 9 30 17 30 18 12 71 10 115 -4 130 -9 9 -17 20 -17 24 -1 4 -5
7 -10 6 -5 -2 -9 1 -9 6 0 5 -24 9 -54 8 -31 -1 -52 -6 -49 -11z m32 -10 c-2
-2 -15 -9 -29 -15 -24 -11 -24 -11 -6 3 16 13 49 24 35 12z m81 -21 c7 -8 9
-15 6 -15 -4 0 -14 7 -22 15 -9 8 -11 15 -6 15 5 0 15 -7 22 -15z m-19 -48 c3
-20 9 -40 12 -44 25 -24 -68 -45 -103 -23 -8 5 -12 10 -9 10 3 0 3 20 -1 45
-4 24 -3 42 2 39 4 -3 8 0 8 6 0 7 16 10 42 8 41 -3 43 -5 49 -41z m46 1 c-3
-8 -6 -5 -6 6 -1 11 2 17 5 13 3 -3 4 -12 1 -19z m-89 -95 c-10 -2 -26 -2 -35
0 -10 3 -2 5 17 5 19 0 27 -2 18 -5z m49 1 c-3 -3 -12 -4 -19 -1 -8 3 -5 6 6
6 11 1 17 -2 13 -5z"/>
<path d="M4430 510 c-9 -6 -10 -10 -3 -10 6 0 15 5 18 10 8 12 4 12 -15 0z"/>
<path d="M4652 558 c3 -95 4 -103 23 -103 17 0 21 8 23 44 2 25 -2 55 -8 67
-8 15 -9 28 -3 39 9 15 17 8 57 -44 37 -48 51 -59 61 -51 10 8 13 5 11 -15 0
-14 -4 -25 -8 -25 -3 0 -29 30 -58 66 -28 36 -54 63 -57 60 -6 -5 75 -114 101
-135 9 -7 23 -11 31 -7 12 4 15 25 15 106 0 99 0 101 -22 98 -21 -3 -23 -9
-26 -66 -2 -42 1 -62 7 -57 7 4 8 0 5 -10 -5 -13 -10 -10 -25 15 -10 16 -19
33 -20 38 -1 4 -15 24 -31 45 -20 25 -38 37 -54 37 l-25 0 3 -102z m59 75 c13
-16 12 -17 -3 -4 -17 13 -22 21 -14 21 2 0 10 -8 17 -17z m-36 -24 c-6 -29
-15 -37 -15 -12 0 17 8 33 16 33 2 0 1 -10 -1 -21z"/>
<path d="M224 575 c-16 -41 -12 -42 368 -41 l363 1 0 25 0 25 -363 3 c-316 2
-363 0 -368 -13z m69 -2 c-7 -2 -21 -2 -30 0 -10 3 -4 5 12 5 17 0 24 -2 18
-5z m657 -10 c0 -13 -3 -14 -8 -6 -6 10 -84 13 -312 16 l-305 2 313 3 c291 2
312 1 312 -15z m-193 -10 c-98 -2 -256 -2 -350 0 -95 1 -14 3 178 2 193 0 270
-1 172 -2z"/>
<path d="M4977 583 c-4 -3 -7 -17 -7 -29 l0 -24 328 3 327 2 3 28 3 27 -324 0
c-178 0 -327 -3 -330 -7z m481 -10 c-86 -2 -230 -2 -320 0 -90 1 -19 3 157 3
176 0 249 -2 163 -3z m0 -20 c-86 -2 -230 -2 -320 0 -90 1 -19 3 157 3 176 0
249 -2 163 -3z"/>
</g>
</svg>
